<mxfile host="Electron" modified="2024-02-06T18:10:34.922Z" agent="Mozilla/5.0 (Windows NT 10.0; Win64; x64) AppleWebKit/537.36 (KHTML, like Gecko) draw.io/23.0.2 Chrome/120.0.6099.109 Electron/28.1.0 Safari/537.36" etag="8F22GtIs075Ge6jjo0PL" version="23.0.2" type="device">
  <diagram name="Page-1" id="hSZAetTDPi6Qr5ROreP3">
    <mxGraphModel dx="-725" dy="918" grid="1" gridSize="10" guides="1" tooltips="1" connect="1" arrows="1" fold="1" page="0" pageScale="1" pageWidth="850" pageHeight="1100" background="none" math="0" shadow="0">
      <root>
        <mxCell id="0" />
        <mxCell id="1" parent="0" />
        <mxCell id="2Uuv6Jr3GKPPrzBkkDZs-156" value="" style="rounded=0;whiteSpace=wrap;html=1;labelBackgroundColor=none;align=center;verticalAlign=middle;fontFamily=Helvetica;fontSize=12;fontColor=default;fillColor=none;gradientColor=none;points=[[0,0,0,0,0],[0,0.14,0,0,0],[0,0.25,0,0,0],[0,0.29,0,0,0],[0,0.43,0,0,0],[0,0.5,0,0,0],[0,0.57,0,0,0],[0,0.71,0,0,0],[0,0.75,0,0,0],[0,0.86,0,0,0],[0,1,0,0,0],[0.25,0,0,0,0],[0.25,1,0,0,0],[0.5,0,0,0,0],[0.5,1,0,0,0],[0.75,0,0,0,0],[0.75,1,0,0,0],[1,0,0,0,0],[1,0.17,0,0,0],[1,0.25,0,0,0],[1,0.33,0,0,0],[1,0.5,0,0,0],[1,0.67,0,0,0],[1,0.75,0,0,0],[1,0.83,0,0,0],[1,1,0,0,0]];movable=1;resizable=1;rotatable=1;deletable=1;editable=1;locked=0;connectable=1;collapsible=1;" parent="1" vertex="1">
          <mxGeometry x="2170" y="-260" width="670" height="795" as="geometry">
            <mxRectangle x="2170" y="-260" width="50" height="40" as="alternateBounds" />
          </mxGeometry>
        </mxCell>
        <mxCell id="2Uuv6Jr3GKPPrzBkkDZs-209" value="" style="rounded=0;whiteSpace=wrap;html=1;labelBackgroundColor=none;align=center;verticalAlign=middle;fontFamily=Helvetica;fontSize=12;fontColor=default;fillColor=none;gradientColor=none;" parent="1" vertex="1">
          <mxGeometry x="2170" y="555" width="440" height="142" as="geometry" />
        </mxCell>
        <mxCell id="2Uuv6Jr3GKPPrzBkkDZs-211" style="edgeStyle=elbowEdgeStyle;rounded=0;orthogonalLoop=1;jettySize=auto;html=1;exitX=0;exitY=0.5;exitDx=0;exitDy=0;entryX=0;entryY=0.25;entryDx=0;entryDy=0;fontFamily=Helvetica;fontSize=12;fontColor=default;" parent="1" source="2Uuv6Jr3GKPPrzBkkDZs-209" target="2Uuv6Jr3GKPPrzBkkDZs-204" edge="1">
          <mxGeometry relative="1" as="geometry" />
        </mxCell>
        <mxCell id="2Uuv6Jr3GKPPrzBkkDZs-212" style="edgeStyle=elbowEdgeStyle;rounded=0;orthogonalLoop=1;jettySize=auto;html=1;exitX=0;exitY=0.75;exitDx=0;exitDy=0;entryX=0;entryY=0.75;entryDx=0;entryDy=0;fontFamily=Helvetica;fontSize=12;fontColor=default;" parent="1" source="2Uuv6Jr3GKPPrzBkkDZs-209" target="2Uuv6Jr3GKPPrzBkkDZs-204" edge="1">
          <mxGeometry relative="1" as="geometry" />
        </mxCell>
        <mxCell id="2Uuv6Jr3GKPPrzBkkDZs-213" style="edgeStyle=elbowEdgeStyle;rounded=0;orthogonalLoop=1;jettySize=auto;html=1;exitX=0;exitY=0.25;exitDx=0;exitDy=0;entryX=0;entryY=0.25;entryDx=0;entryDy=0;fontFamily=Helvetica;fontSize=12;fontColor=default;" parent="1" source="2Uuv6Jr3GKPPrzBkkDZs-209" target="2Uuv6Jr3GKPPrzBkkDZs-202" edge="1">
          <mxGeometry relative="1" as="geometry">
            <Array as="points">
              <mxPoint x="2320" y="612" />
            </Array>
          </mxGeometry>
        </mxCell>
        <mxCell id="BBiGhi12kde4CdcQKqKN-63" style="edgeStyle=orthogonalEdgeStyle;rounded=0;orthogonalLoop=1;jettySize=auto;html=1;exitX=1;exitY=0.5;exitDx=0;exitDy=0;exitPerimeter=0;entryX=0;entryY=0.25;entryDx=0;entryDy=0;entryPerimeter=0;labelBackgroundColor=none;fontColor=default;" parent="1" edge="1">
          <mxGeometry relative="1" as="geometry">
            <Array as="points">
              <mxPoint x="1200" y="508" />
              <mxPoint x="1200" y="532" />
            </Array>
            <mxPoint x="1187" y="510.5" as="sourcePoint" />
          </mxGeometry>
        </mxCell>
        <mxCell id="2Uuv6Jr3GKPPrzBkkDZs-183" value="" style="group;labelBackgroundColor=none;" parent="1" vertex="1" connectable="0">
          <mxGeometry x="2530" y="830" width="340" height="210" as="geometry" />
        </mxCell>
        <mxCell id="2Uuv6Jr3GKPPrzBkkDZs-184" value="" style="whiteSpace=wrap;html=1;align=center;verticalAlign=middle;fontFamily=Helvetica;fontSize=12;fillColor=none;labelBackgroundColor=none;" parent="2Uuv6Jr3GKPPrzBkkDZs-183" vertex="1">
          <mxGeometry y="47" width="320" height="163" as="geometry" />
        </mxCell>
        <mxCell id="2Uuv6Jr3GKPPrzBkkDZs-185" value="00000" style="text;html=1;align=center;verticalAlign=middle;resizable=0;points=[];autosize=1;strokeColor=none;fillColor=none;fontSize=12;fontFamily=Helvetica;container=0;labelBackgroundColor=none;" parent="2Uuv6Jr3GKPPrzBkkDZs-183" vertex="1">
          <mxGeometry x="15" width="60" height="30" as="geometry" />
        </mxCell>
        <mxCell id="2Uuv6Jr3GKPPrzBkkDZs-186" value="" style="shadow=0;dashed=0;align=center;html=1;strokeWidth=1;shape=mxgraph.electrical.abstract.mux2;whiteSpace=wrap;flipV=1;container=0;labelBackgroundColor=none;" parent="2Uuv6Jr3GKPPrzBkkDZs-183" vertex="1">
          <mxGeometry x="80" y="92" width="40" height="40" as="geometry" />
        </mxCell>
        <mxCell id="2Uuv6Jr3GKPPrzBkkDZs-187" style="edgeStyle=orthogonalEdgeStyle;rounded=0;orthogonalLoop=1;jettySize=auto;html=1;entryX=0;entryY=0.15;entryDx=0;entryDy=3;entryPerimeter=0;labelBackgroundColor=none;fontColor=default;" parent="2Uuv6Jr3GKPPrzBkkDZs-183" source="2Uuv6Jr3GKPPrzBkkDZs-188" target="2Uuv6Jr3GKPPrzBkkDZs-186" edge="1">
          <mxGeometry relative="1" as="geometry">
            <Array as="points">
              <mxPoint x="55" y="177.03999999999996" />
              <mxPoint x="55" y="123.03999999999996" />
            </Array>
          </mxGeometry>
        </mxCell>
        <mxCell id="2Uuv6Jr3GKPPrzBkkDZs-188" value="+" style="whiteSpace=wrap;html=1;aspect=fixed;container=0;labelBackgroundColor=none;" parent="2Uuv6Jr3GKPPrzBkkDZs-183" vertex="1">
          <mxGeometry x="165" y="162" width="30" height="30" as="geometry" />
        </mxCell>
        <mxCell id="2Uuv6Jr3GKPPrzBkkDZs-189" value="I_InitVal" style="text;html=1;align=center;verticalAlign=middle;resizable=0;points=[];autosize=1;strokeColor=none;fillColor=none;fontSize=12;fontFamily=Helvetica;container=0;labelBackgroundColor=none;" parent="2Uuv6Jr3GKPPrzBkkDZs-183" vertex="1">
          <mxGeometry x="-10" y="52" width="70" height="30" as="geometry" />
        </mxCell>
        <mxCell id="2Uuv6Jr3GKPPrzBkkDZs-190" value="I_Reset" style="text;html=1;align=center;verticalAlign=middle;resizable=0;points=[];autosize=1;strokeColor=none;fillColor=none;fontSize=12;fontFamily=Helvetica;container=0;labelBackgroundColor=none;" parent="2Uuv6Jr3GKPPrzBkkDZs-183" vertex="1">
          <mxGeometry x="95" y="52" width="60" height="30" as="geometry" />
        </mxCell>
        <mxCell id="2Uuv6Jr3GKPPrzBkkDZs-191" style="edgeStyle=orthogonalEdgeStyle;rounded=0;orthogonalLoop=1;jettySize=auto;html=1;entryX=1;entryY=0.75;entryDx=0;entryDy=0;endArrow=classic;endFill=1;jumpStyle=arc;jumpSize=16;labelBackgroundColor=none;fontColor=default;exitX=0.75;exitY=0;exitDx=0;exitDy=0;" parent="2Uuv6Jr3GKPPrzBkkDZs-183" source="2Uuv6Jr3GKPPrzBkkDZs-184" target="2Uuv6Jr3GKPPrzBkkDZs-188" edge="1">
          <mxGeometry relative="1" as="geometry">
            <mxPoint x="249" y="32" as="sourcePoint" />
            <Array as="points">
              <mxPoint x="240" y="184" />
            </Array>
            <mxPoint x="248.5" y="160" as="targetPoint" />
          </mxGeometry>
        </mxCell>
        <mxCell id="2Uuv6Jr3GKPPrzBkkDZs-192" value="I_Add" style="text;html=1;align=center;verticalAlign=middle;resizable=0;points=[];autosize=1;strokeColor=none;fillColor=none;fontSize=12;fontFamily=Helvetica;container=0;labelBackgroundColor=none;" parent="2Uuv6Jr3GKPPrzBkkDZs-183" vertex="1">
          <mxGeometry x="240" y="52" width="50" height="30" as="geometry" />
        </mxCell>
        <mxCell id="2Uuv6Jr3GKPPrzBkkDZs-193" style="edgeStyle=orthogonalEdgeStyle;rounded=0;orthogonalLoop=1;jettySize=auto;html=1;entryX=1;entryY=0.25;entryDx=0;entryDy=0;fontFamily=Helvetica;fontSize=12;fontColor=default;exitX=0.5;exitY=1;exitDx=0;exitDy=0;labelBackgroundColor=none;" parent="2Uuv6Jr3GKPPrzBkkDZs-183" source="2Uuv6Jr3GKPPrzBkkDZs-197" target="2Uuv6Jr3GKPPrzBkkDZs-188" edge="1">
          <mxGeometry relative="1" as="geometry">
            <Array as="points">
              <mxPoint x="220" y="117" />
              <mxPoint x="220" y="170" />
            </Array>
          </mxGeometry>
        </mxCell>
        <mxCell id="2Uuv6Jr3GKPPrzBkkDZs-194" style="edgeStyle=orthogonalEdgeStyle;rounded=0;orthogonalLoop=1;jettySize=auto;html=1;entryX=0.25;entryY=1;entryDx=10;entryDy=0;entryPerimeter=0;fontFamily=Helvetica;fontSize=12;fontColor=default;labelBackgroundColor=none;" parent="2Uuv6Jr3GKPPrzBkkDZs-183" target="2Uuv6Jr3GKPPrzBkkDZs-186" edge="1">
          <mxGeometry relative="1" as="geometry">
            <mxPoint x="100" y="32" as="sourcePoint" />
            <Array as="points">
              <mxPoint x="100" y="52" />
            </Array>
          </mxGeometry>
        </mxCell>
        <mxCell id="2Uuv6Jr3GKPPrzBkkDZs-195" style="edgeStyle=orthogonalEdgeStyle;rounded=0;orthogonalLoop=1;jettySize=auto;html=1;entryX=0;entryY=0.44999999999999996;entryDx=0;entryDy=3;entryPerimeter=0;fontFamily=Helvetica;fontSize=12;fontColor=default;labelBackgroundColor=none;" parent="2Uuv6Jr3GKPPrzBkkDZs-183" target="2Uuv6Jr3GKPPrzBkkDZs-186" edge="1">
          <mxGeometry relative="1" as="geometry">
            <mxPoint x="50" y="32" as="sourcePoint" />
            <Array as="points">
              <mxPoint x="50" y="111" />
            </Array>
          </mxGeometry>
        </mxCell>
        <mxCell id="2Uuv6Jr3GKPPrzBkkDZs-196" style="edgeStyle=orthogonalEdgeStyle;rounded=0;orthogonalLoop=1;jettySize=auto;html=1;entryX=0;entryY=0.25;entryDx=0;entryDy=0;endArrow=classic;endFill=1;jumpStyle=arc;jumpSize=16;labelBackgroundColor=none;fontColor=default;" parent="2Uuv6Jr3GKPPrzBkkDZs-183" source="2Uuv6Jr3GKPPrzBkkDZs-197" edge="1">
          <mxGeometry relative="1" as="geometry">
            <mxPoint x="340" y="117" as="targetPoint" />
          </mxGeometry>
        </mxCell>
        <mxCell id="2Uuv6Jr3GKPPrzBkkDZs-197" value="" style="rounded=0;whiteSpace=wrap;html=1;rotation=-90;container=0;labelBackgroundColor=none;" parent="2Uuv6Jr3GKPPrzBkkDZs-183" vertex="1">
          <mxGeometry x="144" y="107" width="70" height="20" as="geometry" />
        </mxCell>
        <mxCell id="2Uuv6Jr3GKPPrzBkkDZs-198" style="edgeStyle=orthogonalEdgeStyle;rounded=0;orthogonalLoop=1;jettySize=auto;html=1;exitX=1;exitY=0.5;exitDx=0;exitDy=-5;exitPerimeter=0;entryX=0.5;entryY=0;entryDx=0;entryDy=0;labelBackgroundColor=none;fontColor=default;" parent="2Uuv6Jr3GKPPrzBkkDZs-183" source="2Uuv6Jr3GKPPrzBkkDZs-186" target="2Uuv6Jr3GKPPrzBkkDZs-197" edge="1">
          <mxGeometry relative="1" as="geometry">
            <Array as="points">
              <mxPoint x="165" y="117" />
            </Array>
          </mxGeometry>
        </mxCell>
        <mxCell id="2Uuv6Jr3GKPPrzBkkDZs-199" value="" style="triangle;whiteSpace=wrap;html=1;rotation=-90;container=0;labelBackgroundColor=none;" parent="2Uuv6Jr3GKPPrzBkkDZs-183" vertex="1">
          <mxGeometry x="169" y="137" width="20" height="10" as="geometry" />
        </mxCell>
        <mxCell id="2Uuv6Jr3GKPPrzBkkDZs-200" value="O_NMatches" style="text;html=1;align=center;verticalAlign=middle;resizable=0;points=[];autosize=1;strokeColor=none;fillColor=none;fontSize=12;fontFamily=Helvetica;labelBackgroundColor=none;" parent="2Uuv6Jr3GKPPrzBkkDZs-183" vertex="1">
          <mxGeometry x="235.5" y="82" width="90" height="30" as="geometry" />
        </mxCell>
        <mxCell id="2Uuv6Jr3GKPPrzBkkDZs-201" value="CounterMatches" style="text;html=1;align=center;verticalAlign=middle;resizable=0;points=[];autosize=1;strokeColor=none;fillColor=none;labelBackgroundColor=none;" parent="2Uuv6Jr3GKPPrzBkkDZs-183" vertex="1">
          <mxGeometry x="210" y="180" width="110" height="30" as="geometry" />
        </mxCell>
        <mxCell id="Li7N5Yae0CZkDWWDmwoK-41" value="" style="shape=waypoint;sketch=0;fillStyle=solid;size=6;pointerEvents=1;points=[];fillColor=none;resizable=0;rotatable=0;perimeter=centerPerimeter;snapToPoint=1;strokeColor=none;" parent="2Uuv6Jr3GKPPrzBkkDZs-183" vertex="1">
          <mxGeometry x="310.5" y="107" width="20" height="20" as="geometry" />
        </mxCell>
        <mxCell id="2Uuv6Jr3GKPPrzBkkDZs-224" style="edgeStyle=orthogonalEdgeStyle;rounded=0;orthogonalLoop=1;jettySize=auto;html=1;exitX=1;exitY=0.5;exitDx=0;exitDy=0;fontFamily=Helvetica;fontSize=12;fontColor=default;endArrow=none;endFill=0;entryX=0;entryY=0.51;entryDx=0;entryDy=3;entryPerimeter=0;" parent="1" source="2Uuv6Jr3GKPPrzBkkDZs-202" target="2Uuv6Jr3GKPPrzBkkDZs-229" edge="1">
          <mxGeometry relative="1" as="geometry">
            <mxPoint x="2410" y="631" as="targetPoint" />
          </mxGeometry>
        </mxCell>
        <mxCell id="2Uuv6Jr3GKPPrzBkkDZs-202" value="+" style="whiteSpace=wrap;html=1;aspect=fixed;labelBackgroundColor=none;" parent="1" vertex="1">
          <mxGeometry x="2340" y="616" width="30" height="30" as="geometry" />
        </mxCell>
        <mxCell id="2Uuv6Jr3GKPPrzBkkDZs-203" style="edgeStyle=orthogonalEdgeStyle;rounded=0;orthogonalLoop=1;jettySize=auto;html=1;entryX=0;entryY=0.75;entryDx=0;entryDy=0;fontFamily=Helvetica;fontSize=12;fontColor=default;labelBackgroundColor=none;" parent="1" source="2Uuv6Jr3GKPPrzBkkDZs-204" target="2Uuv6Jr3GKPPrzBkkDZs-202" edge="1">
          <mxGeometry relative="1" as="geometry" />
        </mxCell>
        <mxCell id="2Uuv6Jr3GKPPrzBkkDZs-204" value="&lt;font style=&quot;font-size: 8px;&quot;&gt;CONC&lt;/font&gt;" style="whiteSpace=wrap;html=1;aspect=fixed;labelBackgroundColor=none;" parent="1" vertex="1">
          <mxGeometry x="2271" y="622.96" width="30" height="30" as="geometry" />
        </mxCell>
        <mxCell id="2Uuv6Jr3GKPPrzBkkDZs-205" value="00100" style="text;html=1;align=center;verticalAlign=middle;resizable=0;points=[];autosize=1;strokeColor=none;fillColor=none;fontSize=12;fontFamily=Helvetica;labelBackgroundColor=none;" parent="1" vertex="1">
          <mxGeometry x="2110" y="580" width="60" height="30" as="geometry" />
        </mxCell>
        <mxCell id="2Uuv6Jr3GKPPrzBkkDZs-206" value="I_IntA" style="text;html=1;align=center;verticalAlign=middle;resizable=0;points=[];autosize=1;strokeColor=none;fillColor=none;fontSize=12;fontFamily=Helvetica;fontColor=default;" parent="1" vertex="1">
          <mxGeometry x="2175" y="602" width="50" height="30" as="geometry" />
        </mxCell>
        <mxCell id="2Uuv6Jr3GKPPrzBkkDZs-207" value="I_IntB" style="text;html=1;align=center;verticalAlign=middle;resizable=0;points=[];autosize=1;strokeColor=none;fillColor=none;fontSize=12;fontFamily=Helvetica;fontColor=default;" parent="1" vertex="1">
          <mxGeometry x="2170" y="636" width="50" height="30" as="geometry" />
        </mxCell>
        <mxCell id="2Uuv6Jr3GKPPrzBkkDZs-208" value="I_Add" style="text;html=1;align=center;verticalAlign=middle;resizable=0;points=[];autosize=1;strokeColor=none;fillColor=none;fontSize=12;fontFamily=Helvetica;fontColor=default;" parent="1" vertex="1">
          <mxGeometry x="2175" y="567" width="50" height="30" as="geometry" />
        </mxCell>
        <mxCell id="2Uuv6Jr3GKPPrzBkkDZs-222" style="edgeStyle=elbowEdgeStyle;rounded=0;orthogonalLoop=1;jettySize=auto;html=1;fontFamily=Helvetica;fontSize=12;fontColor=default;entryX=1;entryY=0.5;entryDx=0;entryDy=0;" parent="1" source="2Uuv6Jr3GKPPrzBkkDZs-221" target="2Uuv6Jr3GKPPrzBkkDZs-209" edge="1">
          <mxGeometry relative="1" as="geometry">
            <mxPoint x="2520" y="624" as="targetPoint" />
          </mxGeometry>
        </mxCell>
        <mxCell id="2Uuv6Jr3GKPPrzBkkDZs-220" value="" style="edgeStyle=orthogonalEdgeStyle;rounded=0;orthogonalLoop=1;jettySize=auto;html=1;exitX=0.5;exitY=1;exitDx=0;exitDy=0;entryDx=0;entryDy=0;fontFamily=Helvetica;fontSize=12;fontColor=default;endArrow=none;endFill=0;" parent="1" source="2Uuv6Jr3GKPPrzBkkDZs-232" target="2Uuv6Jr3GKPPrzBkkDZs-221" edge="1">
          <mxGeometry relative="1" as="geometry">
            <mxPoint x="2496" y="630.5" as="sourcePoint" />
            <mxPoint x="4876" y="1242" as="targetPoint" />
            <Array as="points" />
          </mxGeometry>
        </mxCell>
        <mxCell id="2Uuv6Jr3GKPPrzBkkDZs-221" value="" style="shape=waypoint;sketch=0;fillStyle=solid;size=6;pointerEvents=1;points=[];fillColor=none;resizable=1;rotatable=0;perimeter=centerPerimeter;snapToPoint=1;labelBackgroundColor=none;align=center;verticalAlign=middle;fontFamily=Helvetica;fontSize=12;fontColor=default;html=1;" parent="1" vertex="1">
          <mxGeometry x="2501" y="626" width="10" height="10" as="geometry" />
        </mxCell>
        <mxCell id="2Uuv6Jr3GKPPrzBkkDZs-226" style="edgeStyle=orthogonalEdgeStyle;rounded=0;orthogonalLoop=1;jettySize=auto;html=1;entryX=1.013;entryY=0.452;entryDx=0;entryDy=0;entryPerimeter=0;fontFamily=Helvetica;fontSize=12;fontColor=default;" parent="1" edge="1">
          <mxGeometry relative="1" as="geometry">
            <mxPoint x="2451" y="631" as="sourcePoint" />
            <mxPoint x="2451" y="631" as="targetPoint" />
          </mxGeometry>
        </mxCell>
        <mxCell id="2Uuv6Jr3GKPPrzBkkDZs-228" value="" style="edgeStyle=orthogonalEdgeStyle;rounded=0;orthogonalLoop=1;jettySize=auto;html=1;exitDx=0;exitDy=0;fontFamily=Helvetica;fontSize=12;fontColor=default;endArrow=classic;endFill=1;entryX=0;entryY=0.17;entryDx=0;entryDy=3;entryPerimeter=0;" parent="1" source="2Uuv6Jr3GKPPrzBkkDZs-221" target="2Uuv6Jr3GKPPrzBkkDZs-229" edge="1">
          <mxGeometry relative="1" as="geometry">
            <mxPoint x="2506" y="631" as="sourcePoint" />
            <mxPoint x="2441" y="631" as="targetPoint" />
            <Array as="points">
              <mxPoint x="2506" y="582" />
              <mxPoint x="2410" y="582" />
            </Array>
          </mxGeometry>
        </mxCell>
        <mxCell id="2Uuv6Jr3GKPPrzBkkDZs-230" style="edgeStyle=elbowEdgeStyle;rounded=0;orthogonalLoop=1;jettySize=auto;html=1;exitX=1;exitY=0.5;exitDx=0;exitDy=-5;exitPerimeter=0;entryX=0.5;entryY=0;entryDx=0;entryDy=0;fontFamily=Helvetica;fontSize=12;fontColor=default;" parent="1" source="2Uuv6Jr3GKPPrzBkkDZs-229" target="2Uuv6Jr3GKPPrzBkkDZs-232" edge="1">
          <mxGeometry relative="1" as="geometry">
            <mxPoint x="2466" y="630.5" as="targetPoint" />
          </mxGeometry>
        </mxCell>
        <mxCell id="2Uuv6Jr3GKPPrzBkkDZs-229" value="" style="shadow=0;dashed=0;align=center;html=1;strokeWidth=1;shape=mxgraph.electrical.abstract.mux2;whiteSpace=wrap;labelBackgroundColor=none;verticalAlign=middle;fontFamily=Helvetica;fontSize=12;fontColor=default;fillColor=none;gradientColor=none;" parent="1" vertex="1">
          <mxGeometry x="2410" y="611" width="40" height="50" as="geometry" />
        </mxCell>
        <mxCell id="2Uuv6Jr3GKPPrzBkkDZs-235" value="" style="group" parent="1" vertex="1" connectable="0">
          <mxGeometry x="2473" y="596" width="20" height="70" as="geometry" />
        </mxCell>
        <mxCell id="2Uuv6Jr3GKPPrzBkkDZs-232" value="" style="rounded=0;whiteSpace=wrap;html=1;rotation=-90;container=0;labelBackgroundColor=none;" parent="2Uuv6Jr3GKPPrzBkkDZs-235" vertex="1">
          <mxGeometry x="-25" y="25" width="70" height="20" as="geometry" />
        </mxCell>
        <mxCell id="2Uuv6Jr3GKPPrzBkkDZs-233" value="" style="triangle;whiteSpace=wrap;html=1;rotation=-90;container=0;labelBackgroundColor=none;" parent="2Uuv6Jr3GKPPrzBkkDZs-235" vertex="1">
          <mxGeometry y="55" width="20" height="10" as="geometry" />
        </mxCell>
        <mxCell id="2Uuv6Jr3GKPPrzBkkDZs-236" value="I_Reset" style="text;html=1;align=center;verticalAlign=middle;resizable=0;points=[];autosize=1;strokeColor=none;fillColor=none;fontSize=12;fontFamily=Helvetica;fontColor=default;" parent="1" vertex="1">
          <mxGeometry x="2290" y="675" width="60" height="30" as="geometry" />
        </mxCell>
        <mxCell id="2Uuv6Jr3GKPPrzBkkDZs-237" style="edgeStyle=elbowEdgeStyle;rounded=0;orthogonalLoop=1;jettySize=auto;html=1;exitX=0.5;exitY=1;exitDx=0;exitDy=0;entryX=0.25;entryY=1;entryDx=10;entryDy=0;entryPerimeter=0;fontFamily=Helvetica;fontSize=12;fontColor=default;elbow=vertical;" parent="1" source="2Uuv6Jr3GKPPrzBkkDZs-209" target="2Uuv6Jr3GKPPrzBkkDZs-229" edge="1">
          <mxGeometry relative="1" as="geometry">
            <Array as="points">
              <mxPoint x="2390" y="672" />
            </Array>
          </mxGeometry>
        </mxCell>
        <mxCell id="2Uuv6Jr3GKPPrzBkkDZs-238" value="MaxManchesCalculator" style="text;html=1;align=center;verticalAlign=middle;resizable=0;points=[];autosize=1;strokeColor=none;fillColor=none;fontSize=12;fontFamily=Helvetica;fontColor=default;" parent="1" vertex="1">
          <mxGeometry x="2460" y="667" width="150" height="30" as="geometry" />
        </mxCell>
        <mxCell id="2Uuv6Jr3GKPPrzBkkDZs-239" value="INIZIA" style="text;html=1;align=center;verticalAlign=middle;resizable=0;points=[];autosize=1;strokeColor=none;fillColor=none;labelBackgroundColor=none;" parent="1" vertex="1">
          <mxGeometry x="1960" y="720" width="60" height="30" as="geometry" />
        </mxCell>
        <mxCell id="2Uuv6Jr3GKPPrzBkkDZs-240" value="SECONDO" style="text;html=1;align=center;verticalAlign=middle;resizable=0;points=[];autosize=1;strokeColor=none;fillColor=none;labelBackgroundColor=none;" parent="1" vertex="1">
          <mxGeometry x="1950" y="327.03999999999996" width="80" height="30" as="geometry" />
        </mxCell>
        <mxCell id="2Uuv6Jr3GKPPrzBkkDZs-241" value="PRIMO" style="text;html=1;align=center;verticalAlign=middle;resizable=0;points=[];autosize=1;strokeColor=none;fillColor=none;labelBackgroundColor=none;" parent="1" vertex="1">
          <mxGeometry x="1958" y="96.03999999999999" width="60" height="30" as="geometry" />
        </mxCell>
        <mxCell id="Li7N5Yae0CZkDWWDmwoK-1" style="edgeStyle=orthogonalEdgeStyle;rounded=0;orthogonalLoop=1;jettySize=auto;html=1;entryX=0;entryY=0.5;entryDx=0;entryDy=0;" parent="1" source="Li7N5Yae0CZkDWWDmwoK-83" target="2Uuv6Jr3GKPPrzBkkDZs-209" edge="1">
          <mxGeometry relative="1" as="geometry">
            <mxPoint x="2080" y="110" as="sourcePoint" />
            <Array as="points">
              <mxPoint x="2100" y="626" />
            </Array>
          </mxGeometry>
        </mxCell>
        <mxCell id="2Uuv6Jr3GKPPrzBkkDZs-242" value="" style="shape=waypoint;sketch=0;fillStyle=solid;size=6;pointerEvents=1;points=[];fillColor=none;resizable=0;rotatable=0;perimeter=centerPerimeter;snapToPoint=1;labelBackgroundColor=none;align=center;verticalAlign=middle;fontFamily=Helvetica;fontSize=12;fontColor=default;html=1;" parent="1" vertex="1">
          <mxGeometry x="1978" y="135" width="20" height="20" as="geometry" />
        </mxCell>
        <mxCell id="Li7N5Yae0CZkDWWDmwoK-2" style="edgeStyle=orthogonalEdgeStyle;rounded=0;orthogonalLoop=1;jettySize=auto;html=1;entryX=0;entryY=0.75;entryDx=0;entryDy=0;" parent="1" source="Li7N5Yae0CZkDWWDmwoK-84" target="2Uuv6Jr3GKPPrzBkkDZs-209" edge="1">
          <mxGeometry relative="1" as="geometry">
            <Array as="points">
              <mxPoint x="2070" y="662" />
            </Array>
          </mxGeometry>
        </mxCell>
        <mxCell id="2Uuv6Jr3GKPPrzBkkDZs-243" value="" style="shape=waypoint;sketch=0;fillStyle=solid;size=6;pointerEvents=1;points=[];fillColor=none;resizable=0;rotatable=0;perimeter=centerPerimeter;snapToPoint=1;labelBackgroundColor=none;align=center;verticalAlign=middle;fontFamily=Helvetica;fontSize=12;fontColor=default;html=1;" parent="1" vertex="1">
          <mxGeometry x="1978" y="360" width="20" height="20" as="geometry" />
        </mxCell>
        <mxCell id="2Uuv6Jr3GKPPrzBkkDZs-245" style="edgeStyle=orthogonalEdgeStyle;rounded=0;orthogonalLoop=1;jettySize=auto;html=1;fontFamily=Helvetica;fontSize=12;fontColor=default;entryX=0.313;entryY=0.007;entryDx=0;entryDy=0;entryPerimeter=0;" parent="1" source="Li7N5Yae0CZkDWWDmwoK-30" target="2Uuv6Jr3GKPPrzBkkDZs-184" edge="1">
          <mxGeometry relative="1" as="geometry">
            <mxPoint x="2290" y="820" as="targetPoint" />
          </mxGeometry>
        </mxCell>
        <mxCell id="2Uuv6Jr3GKPPrzBkkDZs-244" value="" style="shape=waypoint;sketch=0;fillStyle=solid;size=6;pointerEvents=1;points=[];fillColor=none;resizable=0;rotatable=0;perimeter=centerPerimeter;snapToPoint=1;labelBackgroundColor=none;align=center;verticalAlign=middle;fontFamily=Helvetica;fontSize=12;fontColor=default;html=1;" parent="1" vertex="1">
          <mxGeometry x="1980" y="748" width="20" height="20" as="geometry" />
        </mxCell>
        <mxCell id="Li7N5Yae0CZkDWWDmwoK-4" value="" style="edgeStyle=orthogonalEdgeStyle;rounded=0;orthogonalLoop=1;jettySize=auto;html=1;fontFamily=Helvetica;fontSize=12;fontColor=default;entryDx=0;entryDy=0;entryPerimeter=0;endArrow=none;endFill=0;" parent="1" source="Li7N5Yae0CZkDWWDmwoK-87" target="Li7N5Yae0CZkDWWDmwoK-3" edge="1">
          <mxGeometry relative="1" as="geometry">
            <mxPoint x="2300" y="858" as="targetPoint" />
            <mxPoint x="1990" y="740" as="sourcePoint" />
          </mxGeometry>
        </mxCell>
        <mxCell id="Li7N5Yae0CZkDWWDmwoK-5" style="edgeStyle=orthogonalEdgeStyle;rounded=0;orthogonalLoop=1;jettySize=auto;html=1;entryX=0.5;entryY=1;entryDx=0;entryDy=0;" parent="1" source="Li7N5Yae0CZkDWWDmwoK-3" target="2Uuv6Jr3GKPPrzBkkDZs-209" edge="1">
          <mxGeometry relative="1" as="geometry" />
        </mxCell>
        <mxCell id="Li7N5Yae0CZkDWWDmwoK-3" value="" style="shape=waypoint;sketch=0;fillStyle=solid;size=6;pointerEvents=1;points=[];fillColor=none;resizable=0;rotatable=0;perimeter=centerPerimeter;snapToPoint=1;" parent="1" vertex="1">
          <mxGeometry x="2290" y="748" width="20" height="20" as="geometry" />
        </mxCell>
        <mxCell id="Li7N5Yae0CZkDWWDmwoK-6" style="edgeStyle=orthogonalEdgeStyle;rounded=0;orthogonalLoop=1;jettySize=auto;html=1;exitX=1;exitY=0.5;exitDx=0;exitDy=0;exitPerimeter=0;entryX=0.75;entryY=0;entryDx=0;entryDy=0;" parent="1" source="2Uuv6Jr3GKPPrzBkkDZs-156" target="2Uuv6Jr3GKPPrzBkkDZs-184" edge="1">
          <mxGeometry relative="1" as="geometry">
            <mxPoint x="2550" y="852.6665581597222" as="targetPoint" />
            <Array as="points">
              <mxPoint x="2860" y="137" />
              <mxPoint x="2860" y="710" />
              <mxPoint x="2770" y="710" />
            </Array>
          </mxGeometry>
        </mxCell>
        <mxCell id="Li7N5Yae0CZkDWWDmwoK-31" value="" style="edgeStyle=orthogonalEdgeStyle;rounded=0;orthogonalLoop=1;jettySize=auto;html=1;fontFamily=Helvetica;fontSize=12;fontColor=default;entryDx=0;entryDy=0;entryPerimeter=0;endArrow=none;endFill=0;" parent="1" source="Li7N5Yae0CZkDWWDmwoK-3" target="Li7N5Yae0CZkDWWDmwoK-30" edge="1">
          <mxGeometry relative="1" as="geometry">
            <mxPoint x="2630" y="878" as="targetPoint" />
            <mxPoint x="2300" y="758" as="sourcePoint" />
          </mxGeometry>
        </mxCell>
        <mxCell id="Li7N5Yae0CZkDWWDmwoK-32" style="edgeStyle=orthogonalEdgeStyle;rounded=0;orthogonalLoop=1;jettySize=auto;html=1;entryX=0.25;entryY=0;entryDx=0;entryDy=0;jumpStyle=arc;jumpSize=16;" parent="1" source="xymUzGsUga3tY7WElRn4-16" target="Li7N5Yae0CZkDWWDmwoK-12" edge="1">
          <mxGeometry relative="1" as="geometry" />
        </mxCell>
        <mxCell id="Li7N5Yae0CZkDWWDmwoK-30" value="" style="shape=waypoint;sketch=0;fillStyle=solid;size=6;pointerEvents=1;points=[];fillColor=none;resizable=0;rotatable=0;perimeter=centerPerimeter;snapToPoint=1;" parent="1" vertex="1">
          <mxGeometry x="2620" y="748" width="20" height="20" as="geometry" />
        </mxCell>
        <mxCell id="Li7N5Yae0CZkDWWDmwoK-33" style="edgeStyle=orthogonalEdgeStyle;rounded=0;orthogonalLoop=1;jettySize=auto;html=1;labelBackgroundColor=none;fontColor=default;entryX=0.012;entryY=0.52;entryDx=0;entryDy=0;entryPerimeter=0;" parent="1" source="Li7N5Yae0CZkDWWDmwoK-69" target="Li7N5Yae0CZkDWWDmwoK-38" edge="1">
          <mxGeometry relative="1" as="geometry">
            <mxPoint x="3210" y="499.02" as="targetPoint" />
          </mxGeometry>
        </mxCell>
        <mxCell id="Li7N5Yae0CZkDWWDmwoK-34" value="&amp;gt;=" style="whiteSpace=wrap;html=1;aspect=fixed;container=0;labelBackgroundColor=none;" parent="1" vertex="1">
          <mxGeometry x="3070" y="485" width="30" height="30" as="geometry" />
        </mxCell>
        <mxCell id="Li7N5Yae0CZkDWWDmwoK-48" style="edgeStyle=orthogonalEdgeStyle;shape=connector;rounded=0;jumpStyle=arc;jumpSize=16;orthogonalLoop=1;jettySize=auto;html=1;labelBackgroundColor=default;strokeColor=default;align=center;verticalAlign=middle;fontFamily=Helvetica;fontSize=11;fontColor=default;endArrow=classic;entryX=-0.051;entryY=0.577;entryDx=0;entryDy=0;entryPerimeter=0;exitX=1;exitY=0.5;exitDx=0;exitDy=0;exitPerimeter=0;" parent="1" source="xymUzGsUga3tY7WElRn4-9" target="Li7N5Yae0CZkDWWDmwoK-39" edge="1">
          <mxGeometry relative="1" as="geometry">
            <mxPoint x="3210.0000000000005" y="619" as="targetPoint" />
          </mxGeometry>
        </mxCell>
        <mxCell id="Li7N5Yae0CZkDWWDmwoK-36" value="==" style="whiteSpace=wrap;html=1;aspect=fixed;container=0;labelBackgroundColor=none;" parent="1" vertex="1">
          <mxGeometry x="3070" y="605" width="30" height="30" as="geometry" />
        </mxCell>
        <mxCell id="Li7N5Yae0CZkDWWDmwoK-37" value="00100" style="text;html=1;align=center;verticalAlign=middle;resizable=0;points=[];autosize=1;strokeColor=none;fillColor=none;labelBackgroundColor=none;" parent="1" vertex="1">
          <mxGeometry x="2996" y="477" width="60" height="30" as="geometry" />
        </mxCell>
        <mxCell id="Li7N5Yae0CZkDWWDmwoK-38" value="O_Min" style="text;html=1;align=center;verticalAlign=middle;resizable=0;points=[];autosize=1;strokeColor=none;fillColor=none;labelBackgroundColor=none;" parent="1" vertex="1">
          <mxGeometry x="3422" y="485" width="60" height="30" as="geometry" />
        </mxCell>
        <mxCell id="Li7N5Yae0CZkDWWDmwoK-39" value="O_Max" style="text;html=1;align=center;verticalAlign=middle;resizable=0;points=[];autosize=1;strokeColor=none;fillColor=none;labelBackgroundColor=none;" parent="1" vertex="1">
          <mxGeometry x="3422" y="602" width="60" height="30" as="geometry" />
        </mxCell>
        <mxCell id="Li7N5Yae0CZkDWWDmwoK-40" style="edgeStyle=orthogonalEdgeStyle;rounded=0;orthogonalLoop=1;jettySize=auto;html=1;exitX=1.056;exitY=0.506;exitDx=0;exitDy=0;entryX=0;entryY=0.25;entryDx=0;entryDy=0;fontFamily=Helvetica;fontSize=12;fontColor=default;exitPerimeter=0;" parent="1" source="Li7N5Yae0CZkDWWDmwoK-37" target="Li7N5Yae0CZkDWWDmwoK-34" edge="1">
          <mxGeometry relative="1" as="geometry" />
        </mxCell>
        <mxCell id="Li7N5Yae0CZkDWWDmwoK-42" style="edgeStyle=orthogonalEdgeStyle;rounded=0;orthogonalLoop=1;jettySize=auto;html=1;entryX=0;entryY=0.75;entryDx=0;entryDy=0;jumpStyle=arc;jumpSize=16;" parent="1" source="Li7N5Yae0CZkDWWDmwoK-44" target="Li7N5Yae0CZkDWWDmwoK-34" edge="1">
          <mxGeometry relative="1" as="geometry">
            <Array as="points">
              <mxPoint x="2990" y="507" />
              <mxPoint x="3065" y="507" />
            </Array>
          </mxGeometry>
        </mxCell>
        <mxCell id="Li7N5Yae0CZkDWWDmwoK-45" value="" style="edgeStyle=orthogonalEdgeStyle;rounded=0;orthogonalLoop=1;jettySize=auto;html=1;entryDx=0;entryDy=0;jumpStyle=arc;jumpSize=16;endArrow=none;endFill=0;" parent="1" source="Li7N5Yae0CZkDWWDmwoK-41" target="Li7N5Yae0CZkDWWDmwoK-44" edge="1">
          <mxGeometry relative="1" as="geometry">
            <mxPoint x="2851" y="947" as="sourcePoint" />
            <mxPoint x="3130" y="507" as="targetPoint" />
          </mxGeometry>
        </mxCell>
        <mxCell id="Li7N5Yae0CZkDWWDmwoK-46" style="edgeStyle=orthogonalEdgeStyle;shape=connector;rounded=0;jumpStyle=arc;jumpSize=16;orthogonalLoop=1;jettySize=auto;html=1;entryX=0;entryY=0.25;entryDx=0;entryDy=0;labelBackgroundColor=default;strokeColor=default;align=center;verticalAlign=middle;fontFamily=Helvetica;fontSize=11;fontColor=default;endArrow=classic;" parent="1" source="Li7N5Yae0CZkDWWDmwoK-44" target="Li7N5Yae0CZkDWWDmwoK-36" edge="1">
          <mxGeometry relative="1" as="geometry" />
        </mxCell>
        <mxCell id="Li7N5Yae0CZkDWWDmwoK-44" value="" style="shape=waypoint;sketch=0;fillStyle=solid;size=6;pointerEvents=1;points=[];fillColor=none;resizable=0;rotatable=0;perimeter=centerPerimeter;snapToPoint=1;fontFamily=Helvetica;fontSize=11;fontColor=default;" parent="1" vertex="1">
          <mxGeometry x="2980" y="602" width="20" height="20" as="geometry" />
        </mxCell>
        <mxCell id="Li7N5Yae0CZkDWWDmwoK-47" style="edgeStyle=orthogonalEdgeStyle;shape=connector;rounded=0;jumpStyle=arc;jumpSize=16;orthogonalLoop=1;jettySize=auto;html=1;exitX=1;exitY=0.5;exitDx=0;exitDy=0;entryX=0;entryY=0.75;entryDx=0;entryDy=0;labelBackgroundColor=default;strokeColor=default;align=center;verticalAlign=middle;fontFamily=Helvetica;fontSize=11;fontColor=default;endArrow=classic;" parent="1" source="2Uuv6Jr3GKPPrzBkkDZs-209" target="Li7N5Yae0CZkDWWDmwoK-36" edge="1">
          <mxGeometry relative="1" as="geometry" />
        </mxCell>
        <mxCell id="Li7N5Yae0CZkDWWDmwoK-49" value="MANCHE" style="text;html=1;align=center;verticalAlign=middle;resizable=0;points=[];autosize=1;strokeColor=none;fillColor=none;labelBackgroundColor=none;" parent="1" vertex="1">
          <mxGeometry x="3020" y="-360" width="80" height="30" as="geometry" />
        </mxCell>
        <mxCell id="Li7N5Yae0CZkDWWDmwoK-50" value="" style="shadow=0;dashed=0;align=center;html=1;strokeWidth=1;shape=mxgraph.electrical.abstract.mux2;whiteSpace=wrap;rotation=-90;flipH=0;flipV=1;labelBackgroundColor=none;" parent="1" vertex="1">
          <mxGeometry x="3040" y="-340" width="40" height="50" as="geometry" />
        </mxCell>
        <mxCell id="Li7N5Yae0CZkDWWDmwoK-51" value="00" style="text;html=1;align=center;verticalAlign=middle;resizable=1;points=[];autosize=1;strokeColor=none;fillColor=none;labelBackgroundColor=none;" parent="1" vertex="1">
          <mxGeometry x="3070" y="-290" width="20" height="20" as="geometry" />
        </mxCell>
        <mxCell id="Li7N5Yae0CZkDWWDmwoK-52" style="edgeStyle=orthogonalEdgeStyle;shape=connector;rounded=0;jumpStyle=arc;jumpSize=16;orthogonalLoop=1;jettySize=auto;html=1;exitDx=0;exitDy=0;exitPerimeter=0;entryX=0.25;entryY=1;entryDx=10;entryDy=0;entryPerimeter=0;labelBackgroundColor=default;strokeColor=default;align=center;verticalAlign=middle;fontFamily=Helvetica;fontSize=11;fontColor=default;endArrow=classic;" parent="1" source="ZAlOu0CJ_7-fTKXVSEOV-58" target="Li7N5Yae0CZkDWWDmwoK-50" edge="1">
          <mxGeometry relative="1" as="geometry">
            <Array as="points">
              <mxPoint x="2940" y="-315" />
            </Array>
          </mxGeometry>
        </mxCell>
        <mxCell id="Li7N5Yae0CZkDWWDmwoK-53" value="O_Player1Move" style="text;html=1;align=center;verticalAlign=middle;resizable=0;points=[];autosize=1;strokeColor=none;fillColor=none;labelBackgroundColor=none;" parent="1" vertex="1">
          <mxGeometry x="3397" y="-16" width="110" height="30" as="geometry" />
        </mxCell>
        <mxCell id="Li7N5Yae0CZkDWWDmwoK-54" value="O_Player2Move" style="text;html=1;align=center;verticalAlign=middle;resizable=0;points=[];autosize=1;strokeColor=none;fillColor=none;labelBackgroundColor=none;" parent="1" vertex="1">
          <mxGeometry x="3397" y="248.5" width="110" height="30" as="geometry" />
        </mxCell>
        <mxCell id="Li7N5Yae0CZkDWWDmwoK-56" style="edgeStyle=orthogonalEdgeStyle;shape=connector;rounded=0;jumpStyle=arc;jumpSize=16;orthogonalLoop=1;jettySize=auto;html=1;labelBackgroundColor=default;strokeColor=default;align=center;verticalAlign=middle;fontFamily=Helvetica;fontSize=11;fontColor=default;endArrow=classic;entryX=0;entryY=0.51;entryDx=0;entryDy=3;entryPerimeter=0;" parent="1" source="Li7N5Yae0CZkDWWDmwoK-58" target="Li7N5Yae0CZkDWWDmwoK-50" edge="1">
          <mxGeometry relative="1" as="geometry">
            <mxPoint x="3030" y="-270" as="targetPoint" />
          </mxGeometry>
        </mxCell>
        <mxCell id="Li7N5Yae0CZkDWWDmwoK-62" style="edgeStyle=orthogonalEdgeStyle;shape=connector;rounded=0;jumpStyle=arc;jumpSize=16;orthogonalLoop=1;jettySize=auto;html=1;labelBackgroundColor=default;strokeColor=default;align=center;verticalAlign=middle;fontFamily=Helvetica;fontSize=12;fontColor=default;endArrow=none;endFill=0;exitX=0.5;exitY=0;exitDx=0;exitDy=0;" parent="1" source="mE6gi2bYA7gFPaVlOnJq-24" target="Li7N5Yae0CZkDWWDmwoK-58" edge="1">
          <mxGeometry relative="1" as="geometry" />
        </mxCell>
        <mxCell id="mE6gi2bYA7gFPaVlOnJq-27" style="edgeStyle=orthogonalEdgeStyle;rounded=0;orthogonalLoop=1;jettySize=auto;html=1;entryX=0.5;entryY=1;entryDx=0;entryDy=0;endArrow=none;endFill=0;" parent="1" source="Li7N5Yae0CZkDWWDmwoK-55" target="mE6gi2bYA7gFPaVlOnJq-24" edge="1">
          <mxGeometry relative="1" as="geometry" />
        </mxCell>
        <mxCell id="Li7N5Yae0CZkDWWDmwoK-55" value="O_MancheWinner" style="text;html=1;align=center;verticalAlign=middle;resizable=0;points=[];autosize=1;strokeColor=none;fillColor=none;labelBackgroundColor=none;" parent="1" vertex="1">
          <mxGeometry x="3392" y="-230.5" width="120" height="30" as="geometry" />
        </mxCell>
        <mxCell id="Li7N5Yae0CZkDWWDmwoK-57" style="edgeStyle=orthogonalEdgeStyle;shape=connector;rounded=0;jumpStyle=arc;jumpSize=16;orthogonalLoop=1;jettySize=auto;html=1;entryX=1;entryY=0.17;entryDx=0;entryDy=0;entryPerimeter=0;labelBackgroundColor=default;strokeColor=default;align=center;verticalAlign=middle;fontFamily=Helvetica;fontSize=12;fontColor=default;endArrow=classic;" parent="1" source="Li7N5Yae0CZkDWWDmwoK-58" target="2Uuv6Jr3GKPPrzBkkDZs-156" edge="1">
          <mxGeometry relative="1" as="geometry">
            <Array as="points">
              <mxPoint x="2970" y="-216" />
              <mxPoint x="2970" y="-125" />
            </Array>
          </mxGeometry>
        </mxCell>
        <mxCell id="Li7N5Yae0CZkDWWDmwoK-58" value="" style="shape=waypoint;sketch=0;fillStyle=solid;size=6;pointerEvents=1;points=[];fillColor=none;resizable=0;rotatable=0;perimeter=centerPerimeter;snapToPoint=1;labelBackgroundColor=none;align=center;verticalAlign=middle;fontFamily=Helvetica;fontSize=12;fontColor=default;html=1;" parent="1" vertex="1">
          <mxGeometry x="3046" y="-226" width="20" height="20" as="geometry" />
        </mxCell>
        <mxCell id="Li7N5Yae0CZkDWWDmwoK-63" style="edgeStyle=orthogonalEdgeStyle;rounded=0;orthogonalLoop=1;jettySize=auto;html=1;exitX=1;exitY=0.5;exitDx=0;exitDy=-5;exitPerimeter=0;labelBackgroundColor=none;fontColor=default;" parent="1" source="Li7N5Yae0CZkDWWDmwoK-64" edge="1">
          <mxGeometry relative="1" as="geometry">
            <mxPoint x="3190" y="1143.04" as="targetPoint" />
            <Array as="points">
              <mxPoint x="3190" y="1083.04" />
            </Array>
          </mxGeometry>
        </mxCell>
        <mxCell id="Li7N5Yae0CZkDWWDmwoK-64" value="" style="shadow=0;dashed=0;align=center;html=1;strokeWidth=1;shape=mxgraph.electrical.abstract.mux2;whiteSpace=wrap;rotation=-180;flipH=1;flipV=1;direction=south;labelBackgroundColor=none;" parent="1" vertex="1">
          <mxGeometry x="3160" y="1023" width="50" height="40" as="geometry" />
        </mxCell>
        <mxCell id="Li7N5Yae0CZkDWWDmwoK-65" value="00" style="text;html=1;align=center;verticalAlign=middle;resizable=1;points=[];autosize=1;strokeColor=none;fillColor=none;labelBackgroundColor=none;" parent="1" vertex="1">
          <mxGeometry x="3190" y="1005" width="20" height="18" as="geometry" />
        </mxCell>
        <mxCell id="Li7N5Yae0CZkDWWDmwoK-8" value="WinG" style="text;html=1;align=center;verticalAlign=middle;resizable=0;points=[];autosize=1;strokeColor=none;fillColor=none;labelBackgroundColor=none;" parent="1" vertex="1">
          <mxGeometry x="3456" y="867" width="50" height="30" as="geometry" />
        </mxCell>
        <mxCell id="Li7N5Yae0CZkDWWDmwoK-10" style="edgeStyle=orthogonalEdgeStyle;rounded=0;orthogonalLoop=1;jettySize=auto;html=1;entryX=1;entryY=0.5;entryDx=0;entryDy=0;labelBackgroundColor=none;fontColor=default;" parent="1" source="Li7N5Yae0CZkDWWDmwoK-8" target="Li7N5Yae0CZkDWWDmwoK-15" edge="1">
          <mxGeometry relative="1" as="geometry" />
        </mxCell>
        <mxCell id="Li7N5Yae0CZkDWWDmwoK-68" style="edgeStyle=orthogonalEdgeStyle;shape=connector;rounded=0;jumpStyle=arc;jumpSize=16;orthogonalLoop=1;jettySize=auto;html=1;labelBackgroundColor=default;strokeColor=default;align=center;verticalAlign=middle;fontFamily=Helvetica;fontSize=12;fontColor=default;endArrow=classic;entryX=0;entryY=0.51;entryDx=0;entryDy=3;entryPerimeter=0;" parent="1" source="Li7N5Yae0CZkDWWDmwoK-66" target="Li7N5Yae0CZkDWWDmwoK-64" edge="1">
          <mxGeometry relative="1" as="geometry">
            <mxPoint x="3040" y="970" as="targetPoint" />
          </mxGeometry>
        </mxCell>
        <mxCell id="Li7N5Yae0CZkDWWDmwoK-70" value="" style="edgeStyle=orthogonalEdgeStyle;rounded=0;orthogonalLoop=1;jettySize=auto;html=1;labelBackgroundColor=none;fontColor=default;endArrow=none;endFill=0;" parent="1" source="Li7N5Yae0CZkDWWDmwoK-34" target="Li7N5Yae0CZkDWWDmwoK-69" edge="1">
          <mxGeometry relative="1" as="geometry">
            <mxPoint x="3210" y="499.02" as="targetPoint" />
            <mxPoint x="3100" y="500" as="sourcePoint" />
          </mxGeometry>
        </mxCell>
        <mxCell id="Li7N5Yae0CZkDWWDmwoK-69" value="" style="shape=waypoint;sketch=0;fillStyle=solid;size=6;pointerEvents=1;points=[];fillColor=none;resizable=0;rotatable=0;perimeter=centerPerimeter;snapToPoint=1;labelBackgroundColor=none;align=center;verticalAlign=middle;fontFamily=Helvetica;fontSize=12;fontColor=default;html=1;" parent="1" vertex="1">
          <mxGeometry x="3130" y="490" width="20" height="20" as="geometry" />
        </mxCell>
        <mxCell id="Li7N5Yae0CZkDWWDmwoK-71" style="edgeStyle=orthogonalEdgeStyle;shape=connector;rounded=0;jumpStyle=arc;jumpSize=16;orthogonalLoop=1;jettySize=auto;html=1;entryX=0.25;entryY=1;entryDx=10;entryDy=0;entryPerimeter=0;labelBackgroundColor=default;strokeColor=default;align=center;verticalAlign=middle;fontFamily=Helvetica;fontSize=12;fontColor=default;endArrow=classic;" parent="1" source="Li7N5Yae0CZkDWWDmwoK-69" target="Li7N5Yae0CZkDWWDmwoK-64" edge="1">
          <mxGeometry relative="1" as="geometry">
            <Array as="points">
              <mxPoint x="3140" y="1043" />
            </Array>
          </mxGeometry>
        </mxCell>
        <mxCell id="Li7N5Yae0CZkDWWDmwoK-72" value="PARTITA" style="text;html=1;align=center;verticalAlign=middle;resizable=0;points=[];autosize=1;strokeColor=none;fillColor=none;labelBackgroundColor=none;" parent="1" vertex="1">
          <mxGeometry x="3190" y="1110" width="70" height="30" as="geometry" />
        </mxCell>
        <mxCell id="Li7N5Yae0CZkDWWDmwoK-73" style="edgeStyle=orthogonalEdgeStyle;shape=connector;rounded=0;jumpStyle=arc;jumpSize=16;orthogonalLoop=1;jettySize=auto;html=1;exitX=1;exitY=0.33;exitDx=0;exitDy=0;exitPerimeter=0;labelBackgroundColor=default;strokeColor=default;align=center;verticalAlign=middle;fontFamily=Helvetica;fontSize=12;fontColor=default;endArrow=classic;entryX=-0.046;entryY=0.622;entryDx=0;entryDy=0;entryPerimeter=0;" parent="1" source="2Uuv6Jr3GKPPrzBkkDZs-156" target="Li7N5Yae0CZkDWWDmwoK-53" edge="1">
          <mxGeometry relative="1" as="geometry">
            <mxPoint x="3450" y="1.9411764705882888" as="targetPoint" />
          </mxGeometry>
        </mxCell>
        <mxCell id="Li7N5Yae0CZkDWWDmwoK-74" style="edgeStyle=orthogonalEdgeStyle;shape=connector;rounded=0;jumpStyle=arc;jumpSize=16;orthogonalLoop=1;jettySize=auto;html=1;exitX=1;exitY=0.67;exitDx=0;exitDy=0;exitPerimeter=0;entryX=0.041;entryY=0.801;entryDx=0;entryDy=0;entryPerimeter=0;labelBackgroundColor=default;strokeColor=default;align=center;verticalAlign=middle;fontFamily=Helvetica;fontSize=12;fontColor=default;endArrow=classic;" parent="1" source="2Uuv6Jr3GKPPrzBkkDZs-156" target="Li7N5Yae0CZkDWWDmwoK-54" edge="1">
          <mxGeometry relative="1" as="geometry" />
        </mxCell>
        <mxCell id="Li7N5Yae0CZkDWWDmwoK-27" value="O_LastNonZero" style="text;html=1;align=center;verticalAlign=middle;resizable=0;points=[];autosize=1;strokeColor=none;fillColor=none;labelBackgroundColor=none;" parent="1" vertex="1">
          <mxGeometry x="3205" y="890" width="110" height="30" as="geometry" />
        </mxCell>
        <mxCell id="Li7N5Yae0CZkDWWDmwoK-76" value="" style="edgeStyle=orthogonalEdgeStyle;rounded=0;orthogonalLoop=1;jettySize=auto;html=1;entryDx=0;entryDy=3;entryPerimeter=0;jumpStyle=arc;jumpSize=16;labelBackgroundColor=none;fontColor=default;endArrow=none;endFill=0;" parent="1" source="Li7N5Yae0CZkDWWDmwoK-8" target="Li7N5Yae0CZkDWWDmwoK-75" edge="1">
          <mxGeometry relative="1" as="geometry">
            <mxPoint x="3456" y="882" as="sourcePoint" />
            <mxPoint x="3339" y="882" as="targetPoint" />
            <Array as="points">
              <mxPoint x="3450" y="882" />
              <mxPoint x="3450" y="882" />
            </Array>
          </mxGeometry>
        </mxCell>
        <mxCell id="Li7N5Yae0CZkDWWDmwoK-81" style="edgeStyle=orthogonalEdgeStyle;shape=connector;rounded=0;jumpStyle=arc;jumpSize=16;orthogonalLoop=1;jettySize=auto;html=1;entryX=0;entryY=0.43;entryDx=0;entryDy=0;entryPerimeter=0;labelBackgroundColor=default;strokeColor=default;align=center;verticalAlign=middle;fontFamily=Helvetica;fontSize=12;fontColor=default;endArrow=classic;" parent="1" source="Li7N5Yae0CZkDWWDmwoK-83" target="2Uuv6Jr3GKPPrzBkkDZs-156" edge="1">
          <mxGeometry relative="1" as="geometry" />
        </mxCell>
        <mxCell id="Li7N5Yae0CZkDWWDmwoK-82" value="" style="edgeStyle=orthogonalEdgeStyle;shape=connector;rounded=0;jumpStyle=arc;jumpSize=16;orthogonalLoop=1;jettySize=auto;html=1;entryDx=0;entryDy=0;entryPerimeter=0;labelBackgroundColor=default;strokeColor=default;align=center;verticalAlign=middle;fontFamily=Helvetica;fontSize=12;fontColor=default;endArrow=none;endFill=0;exitX=0.613;exitY=0.623;exitDx=0;exitDy=0;exitPerimeter=0;" parent="1" source="2Uuv6Jr3GKPPrzBkkDZs-242" target="Li7N5Yae0CZkDWWDmwoK-83" edge="1">
          <mxGeometry relative="1" as="geometry">
            <mxPoint x="2010" y="160" as="sourcePoint" />
            <mxPoint x="2170" y="82" as="targetPoint" />
          </mxGeometry>
        </mxCell>
        <mxCell id="Li7N5Yae0CZkDWWDmwoK-83" value="" style="shape=waypoint;sketch=0;fillStyle=solid;size=6;pointerEvents=1;points=[];fillColor=none;resizable=0;rotatable=0;perimeter=centerPerimeter;snapToPoint=1;labelBackgroundColor=none;align=center;verticalAlign=middle;fontFamily=Helvetica;fontSize=12;fontColor=default;html=1;" parent="1" vertex="1">
          <mxGeometry x="2090" y="135" width="20" height="20" as="geometry" />
        </mxCell>
        <mxCell id="Li7N5Yae0CZkDWWDmwoK-85" value="" style="edgeStyle=orthogonalEdgeStyle;rounded=0;orthogonalLoop=1;jettySize=auto;html=1;entryDx=0;entryDy=0;endArrow=none;endFill=0;" parent="1" source="2Uuv6Jr3GKPPrzBkkDZs-243" target="Li7N5Yae0CZkDWWDmwoK-84" edge="1">
          <mxGeometry relative="1" as="geometry">
            <mxPoint x="1988" y="370" as="sourcePoint" />
            <mxPoint x="2170" y="661" as="targetPoint" />
            <Array as="points" />
          </mxGeometry>
        </mxCell>
        <mxCell id="Li7N5Yae0CZkDWWDmwoK-84" value="" style="shape=waypoint;sketch=0;fillStyle=solid;size=6;pointerEvents=1;points=[];fillColor=none;resizable=0;rotatable=0;perimeter=centerPerimeter;snapToPoint=1;labelBackgroundColor=none;align=center;verticalAlign=middle;fontFamily=Helvetica;fontSize=12;fontColor=default;html=1;" parent="1" vertex="1">
          <mxGeometry x="2060" y="360" width="20" height="20" as="geometry" />
        </mxCell>
        <mxCell id="Li7N5Yae0CZkDWWDmwoK-86" style="edgeStyle=orthogonalEdgeStyle;shape=connector;rounded=0;jumpStyle=arc;jumpSize=16;orthogonalLoop=1;jettySize=auto;html=1;entryX=0;entryY=0.75;entryDx=0;entryDy=0;entryPerimeter=0;labelBackgroundColor=default;strokeColor=default;align=center;verticalAlign=middle;fontFamily=Helvetica;fontSize=12;fontColor=default;endArrow=classic;" parent="1" source="Li7N5Yae0CZkDWWDmwoK-84" target="2Uuv6Jr3GKPPrzBkkDZs-156" edge="1">
          <mxGeometry relative="1" as="geometry" />
        </mxCell>
        <mxCell id="Li7N5Yae0CZkDWWDmwoK-88" value="" style="edgeStyle=orthogonalEdgeStyle;rounded=0;orthogonalLoop=1;jettySize=auto;html=1;fontFamily=Helvetica;fontSize=12;fontColor=default;entryDx=0;entryDy=0;entryPerimeter=0;endArrow=none;endFill=0;" parent="1" source="2Uuv6Jr3GKPPrzBkkDZs-244" target="Li7N5Yae0CZkDWWDmwoK-87" edge="1">
          <mxGeometry relative="1" as="geometry">
            <mxPoint x="2300" y="758" as="targetPoint" />
            <mxPoint x="1990" y="758" as="sourcePoint" />
          </mxGeometry>
        </mxCell>
        <mxCell id="Li7N5Yae0CZkDWWDmwoK-87" value="" style="shape=waypoint;sketch=0;fillStyle=solid;size=6;pointerEvents=1;points=[];fillColor=none;resizable=0;rotatable=0;perimeter=centerPerimeter;snapToPoint=1;labelBackgroundColor=none;align=center;verticalAlign=middle;fontFamily=Helvetica;fontSize=12;fontColor=default;html=1;" parent="1" vertex="1">
          <mxGeometry x="2020" y="748" width="20" height="20" as="geometry" />
        </mxCell>
        <mxCell id="Li7N5Yae0CZkDWWDmwoK-89" style="edgeStyle=orthogonalEdgeStyle;shape=connector;rounded=0;jumpStyle=arc;jumpSize=16;orthogonalLoop=1;jettySize=auto;html=1;entryX=0;entryY=0.14;entryDx=0;entryDy=0;entryPerimeter=0;labelBackgroundColor=default;strokeColor=default;align=center;verticalAlign=middle;fontFamily=Helvetica;fontSize=12;fontColor=default;endArrow=classic;" parent="1" source="Li7N5Yae0CZkDWWDmwoK-87" target="2Uuv6Jr3GKPPrzBkkDZs-156" edge="1">
          <mxGeometry relative="1" as="geometry">
            <Array as="points">
              <mxPoint x="2030" y="-149" />
            </Array>
          </mxGeometry>
        </mxCell>
        <mxCell id="6v1UwcpiBYirSLQahsiM-1" value="O_MaxMatches" style="text;html=1;align=center;verticalAlign=middle;resizable=0;points=[];autosize=1;strokeColor=none;fillColor=none;" parent="1" vertex="1">
          <mxGeometry x="2500" y="635" width="110" height="30" as="geometry" />
        </mxCell>
        <mxCell id="9-844MQ3Dv2drRXLUXu9-7" value="" style="group" parent="1" vertex="1" connectable="0">
          <mxGeometry x="3215" y="795" width="221" height="175" as="geometry" />
        </mxCell>
        <mxCell id="Li7N5Yae0CZkDWWDmwoK-12" value="" style="whiteSpace=wrap;html=1;fillColor=none;labelBackgroundColor=none;" parent="9-844MQ3Dv2drRXLUXu9-7" vertex="1">
          <mxGeometry x="1" y="7.960000000000036" width="215" height="167.04" as="geometry" />
        </mxCell>
        <mxCell id="Li7N5Yae0CZkDWWDmwoK-13" value="00" style="text;html=1;align=center;verticalAlign=middle;resizable=0;points=[];autosize=1;strokeColor=none;fillColor=none;labelBackgroundColor=none;" parent="9-844MQ3Dv2drRXLUXu9-7" vertex="1">
          <mxGeometry x="3.5" y="25" width="40" height="30" as="geometry" />
        </mxCell>
        <mxCell id="Li7N5Yae0CZkDWWDmwoK-15" value="NOR" style="whiteSpace=wrap;html=1;aspect=fixed;container=0;labelBackgroundColor=none;" parent="9-844MQ3Dv2drRXLUXu9-7" vertex="1">
          <mxGeometry x="142.5" y="135" width="30" height="30" as="geometry" />
        </mxCell>
        <mxCell id="Li7N5Yae0CZkDWWDmwoK-16" value="" style="shadow=0;dashed=0;align=center;html=1;strokeWidth=1;shape=mxgraph.electrical.abstract.mux2;whiteSpace=wrap;rotation=-180;flipH=0;flipV=1;labelBackgroundColor=none;" parent="9-844MQ3Dv2drRXLUXu9-7" vertex="1">
          <mxGeometry x="83.5" y="75" width="40" height="50" as="geometry" />
        </mxCell>
        <mxCell id="Li7N5Yae0CZkDWWDmwoK-17" style="edgeStyle=orthogonalEdgeStyle;rounded=0;orthogonalLoop=1;jettySize=auto;html=1;entryX=0.25;entryY=1;entryDx=10;entryDy=0;entryPerimeter=0;labelBackgroundColor=none;fontColor=default;" parent="9-844MQ3Dv2drRXLUXu9-7" source="Li7N5Yae0CZkDWWDmwoK-15" target="Li7N5Yae0CZkDWWDmwoK-16" edge="1">
          <mxGeometry relative="1" as="geometry" />
        </mxCell>
        <mxCell id="Li7N5Yae0CZkDWWDmwoK-18" value="" style="group;labelBackgroundColor=none;" parent="9-844MQ3Dv2drRXLUXu9-7" vertex="1" connectable="0">
          <mxGeometry x="93.50497835497845" y="30" width="29.995021645021637" height="40" as="geometry" />
        </mxCell>
        <mxCell id="Li7N5Yae0CZkDWWDmwoK-19" value="" style="rounded=0;whiteSpace=wrap;html=1;rotation=-90;labelBackgroundColor=none;" parent="Li7N5Yae0CZkDWWDmwoK-18" vertex="1">
          <mxGeometry x="-12.5" y="12.5" width="40" height="15" as="geometry" />
        </mxCell>
        <mxCell id="Li7N5Yae0CZkDWWDmwoK-20" value="" style="triangle;whiteSpace=wrap;html=1;rotation=-90;labelBackgroundColor=none;" parent="Li7N5Yae0CZkDWWDmwoK-18" vertex="1">
          <mxGeometry x="1.7857142857142776" y="29.94999999999999" width="11.428571428571429" height="7.5" as="geometry" />
        </mxCell>
        <mxCell id="Li7N5Yae0CZkDWWDmwoK-21" style="edgeStyle=orthogonalEdgeStyle;rounded=0;orthogonalLoop=1;jettySize=auto;html=1;endArrow=classic;endFill=1;jumpStyle=arc;jumpSize=16;entryX=0;entryY=0.51;entryDx=0;entryDy=3;entryPerimeter=0;labelBackgroundColor=none;fontColor=default;" parent="9-844MQ3Dv2drRXLUXu9-7" source="Li7N5Yae0CZkDWWDmwoK-19" target="Li7N5Yae0CZkDWWDmwoK-16" edge="1">
          <mxGeometry relative="1" as="geometry">
            <mxPoint x="123.5" y="104" as="targetPoint" />
            <Array as="points">
              <mxPoint x="153.5" y="50" />
              <mxPoint x="153.5" y="104" />
            </Array>
          </mxGeometry>
        </mxCell>
        <mxCell id="Li7N5Yae0CZkDWWDmwoK-22" style="edgeStyle=orthogonalEdgeStyle;rounded=0;orthogonalLoop=1;jettySize=auto;html=1;exitX=1;exitY=0.5;exitDx=0;exitDy=-5;exitPerimeter=0;entryX=0.5;entryY=0;entryDx=0;entryDy=0;labelBackgroundColor=none;fontColor=default;" parent="9-844MQ3Dv2drRXLUXu9-7" source="Li7N5Yae0CZkDWWDmwoK-23" target="Li7N5Yae0CZkDWWDmwoK-19" edge="1">
          <mxGeometry relative="1" as="geometry" />
        </mxCell>
        <mxCell id="Li7N5Yae0CZkDWWDmwoK-23" value="" style="shadow=0;dashed=0;align=center;html=1;strokeWidth=1;shape=mxgraph.electrical.abstract.mux2;whiteSpace=wrap;rotation=0;flipH=0;flipV=1;labelBackgroundColor=none;" parent="9-844MQ3Dv2drRXLUXu9-7" vertex="1">
          <mxGeometry x="35" y="20" width="40" height="50" as="geometry" />
        </mxCell>
        <mxCell id="Li7N5Yae0CZkDWWDmwoK-24" style="edgeStyle=orthogonalEdgeStyle;rounded=0;orthogonalLoop=1;jettySize=auto;html=1;exitDx=0;exitDy=-5;exitPerimeter=0;entryX=0;entryY=0.17;entryDx=0;entryDy=3;entryPerimeter=0;labelBackgroundColor=none;fontColor=default;" parent="9-844MQ3Dv2drRXLUXu9-7" source="Li7N5Yae0CZkDWWDmwoK-66" target="Li7N5Yae0CZkDWWDmwoK-23" edge="1">
          <mxGeometry relative="1" as="geometry">
            <mxPoint x="23.5" y="80" as="targetPoint" />
            <Array as="points">
              <mxPoint x="15" y="58" />
            </Array>
          </mxGeometry>
        </mxCell>
        <mxCell id="Li7N5Yae0CZkDWWDmwoK-25" style="edgeStyle=orthogonalEdgeStyle;rounded=0;orthogonalLoop=1;jettySize=auto;html=1;exitX=0.25;exitY=0;exitDx=0;exitDy=0;entryX=0.25;entryY=1;entryDx=10;entryDy=0;entryPerimeter=0;labelBackgroundColor=none;fontColor=default;" parent="9-844MQ3Dv2drRXLUXu9-7" source="Li7N5Yae0CZkDWWDmwoK-12" target="Li7N5Yae0CZkDWWDmwoK-23" edge="1">
          <mxGeometry relative="1" as="geometry" />
        </mxCell>
        <mxCell id="Li7N5Yae0CZkDWWDmwoK-26" value="I_Reset" style="text;html=1;align=center;verticalAlign=middle;resizable=0;points=[];autosize=1;strokeColor=none;fillColor=none;labelBackgroundColor=none;" parent="9-844MQ3Dv2drRXLUXu9-7" vertex="1">
          <mxGeometry x="60" width="60" height="30" as="geometry" />
        </mxCell>
        <mxCell id="Li7N5Yae0CZkDWWDmwoK-28" value="LastNonZero" style="text;html=1;align=center;verticalAlign=middle;resizable=0;points=[];autosize=1;strokeColor=none;fillColor=none;labelBackgroundColor=none;" parent="9-844MQ3Dv2drRXLUXu9-7" vertex="1">
          <mxGeometry y="145" width="90" height="30" as="geometry" />
        </mxCell>
        <mxCell id="Li7N5Yae0CZkDWWDmwoK-29" value="I_Value" style="text;html=1;align=center;verticalAlign=middle;resizable=0;points=[];autosize=1;strokeColor=none;fillColor=none;labelBackgroundColor=none;" parent="9-844MQ3Dv2drRXLUXu9-7" vertex="1">
          <mxGeometry x="161" y="55" width="60" height="30" as="geometry" />
        </mxCell>
        <mxCell id="Li7N5Yae0CZkDWWDmwoK-66" value="" style="shape=waypoint;sketch=0;fillStyle=solid;size=6;pointerEvents=1;points=[];fillColor=none;resizable=0;rotatable=0;perimeter=centerPerimeter;snapToPoint=1;labelBackgroundColor=none;align=center;verticalAlign=middle;fontFamily=Helvetica;fontSize=12;fontColor=default;html=1;" parent="9-844MQ3Dv2drRXLUXu9-7" vertex="1">
          <mxGeometry x="5" y="84.96000000000004" width="20" height="20" as="geometry" />
        </mxCell>
        <mxCell id="Li7N5Yae0CZkDWWDmwoK-67" value="" style="edgeStyle=orthogonalEdgeStyle;rounded=0;orthogonalLoop=1;jettySize=auto;html=1;exitX=1;exitY=0.5;exitDx=0;exitDy=-5;exitPerimeter=0;entryDx=0;entryDy=3;entryPerimeter=0;labelBackgroundColor=none;fontColor=default;endArrow=none;endFill=0;" parent="9-844MQ3Dv2drRXLUXu9-7" source="Li7N5Yae0CZkDWWDmwoK-16" target="Li7N5Yae0CZkDWWDmwoK-66" edge="1">
          <mxGeometry relative="1" as="geometry">
            <mxPoint x="3145" y="899" as="targetPoint" />
            <mxPoint x="3194" y="935" as="sourcePoint" />
          </mxGeometry>
        </mxCell>
        <mxCell id="Li7N5Yae0CZkDWWDmwoK-75" value="" style="shape=waypoint;sketch=0;fillStyle=solid;size=6;pointerEvents=1;points=[];fillColor=none;resizable=0;rotatable=0;perimeter=centerPerimeter;snapToPoint=1;labelBackgroundColor=none;align=center;verticalAlign=middle;fontFamily=Helvetica;fontSize=12;fontColor=default;html=1;" parent="9-844MQ3Dv2drRXLUXu9-7" vertex="1">
          <mxGeometry x="197" y="77" width="20" height="20" as="geometry" />
        </mxCell>
        <mxCell id="Li7N5Yae0CZkDWWDmwoK-9" style="edgeStyle=orthogonalEdgeStyle;rounded=0;orthogonalLoop=1;jettySize=auto;html=1;entryX=0;entryY=0.17;entryDx=0;entryDy=3;entryPerimeter=0;jumpStyle=arc;jumpSize=16;labelBackgroundColor=none;fontColor=default;" parent="9-844MQ3Dv2drRXLUXu9-7" source="Li7N5Yae0CZkDWWDmwoK-75" target="Li7N5Yae0CZkDWWDmwoK-16" edge="1">
          <mxGeometry relative="1" as="geometry" />
        </mxCell>
        <mxCell id="9-844MQ3Dv2drRXLUXu9-8" value="" style="group" parent="1" vertex="1" connectable="0">
          <mxGeometry x="2353" y="-236.99999999999977" width="221" height="175" as="geometry" />
        </mxCell>
        <mxCell id="9-844MQ3Dv2drRXLUXu9-9" value="" style="whiteSpace=wrap;html=1;fillColor=none;labelBackgroundColor=none;" parent="9-844MQ3Dv2drRXLUXu9-8" vertex="1">
          <mxGeometry x="1" y="7.960000000000036" width="215" height="167.04" as="geometry" />
        </mxCell>
        <mxCell id="9-844MQ3Dv2drRXLUXu9-10" value="00" style="text;html=1;align=center;verticalAlign=middle;resizable=0;points=[];autosize=1;strokeColor=none;fillColor=none;labelBackgroundColor=none;" parent="9-844MQ3Dv2drRXLUXu9-8" vertex="1">
          <mxGeometry x="3.5" y="25" width="40" height="30" as="geometry" />
        </mxCell>
        <mxCell id="9-844MQ3Dv2drRXLUXu9-11" value="NOR" style="whiteSpace=wrap;html=1;aspect=fixed;container=0;labelBackgroundColor=none;" parent="9-844MQ3Dv2drRXLUXu9-8" vertex="1">
          <mxGeometry x="142.5" y="135" width="30" height="30" as="geometry" />
        </mxCell>
        <mxCell id="9-844MQ3Dv2drRXLUXu9-12" value="" style="shadow=0;dashed=0;align=center;html=1;strokeWidth=1;shape=mxgraph.electrical.abstract.mux2;whiteSpace=wrap;rotation=-180;flipH=0;flipV=1;labelBackgroundColor=none;" parent="9-844MQ3Dv2drRXLUXu9-8" vertex="1">
          <mxGeometry x="83.5" y="75" width="40" height="50" as="geometry" />
        </mxCell>
        <mxCell id="9-844MQ3Dv2drRXLUXu9-13" style="edgeStyle=orthogonalEdgeStyle;rounded=0;orthogonalLoop=1;jettySize=auto;html=1;entryX=0.25;entryY=1;entryDx=10;entryDy=0;entryPerimeter=0;labelBackgroundColor=none;fontColor=default;" parent="9-844MQ3Dv2drRXLUXu9-8" source="9-844MQ3Dv2drRXLUXu9-11" target="9-844MQ3Dv2drRXLUXu9-12" edge="1">
          <mxGeometry relative="1" as="geometry" />
        </mxCell>
        <mxCell id="9-844MQ3Dv2drRXLUXu9-14" value="" style="group;labelBackgroundColor=none;" parent="9-844MQ3Dv2drRXLUXu9-8" vertex="1" connectable="0">
          <mxGeometry x="93.50497835497845" y="30" width="29.995021645021637" height="40" as="geometry" />
        </mxCell>
        <mxCell id="9-844MQ3Dv2drRXLUXu9-15" value="" style="rounded=0;whiteSpace=wrap;html=1;rotation=-90;labelBackgroundColor=none;" parent="9-844MQ3Dv2drRXLUXu9-14" vertex="1">
          <mxGeometry x="-12.5" y="12.5" width="40" height="15" as="geometry" />
        </mxCell>
        <mxCell id="9-844MQ3Dv2drRXLUXu9-16" value="" style="triangle;whiteSpace=wrap;html=1;rotation=-90;labelBackgroundColor=none;" parent="9-844MQ3Dv2drRXLUXu9-14" vertex="1">
          <mxGeometry x="1.7857142857142776" y="29.94999999999999" width="11.428571428571429" height="7.5" as="geometry" />
        </mxCell>
        <mxCell id="9-844MQ3Dv2drRXLUXu9-17" style="edgeStyle=orthogonalEdgeStyle;rounded=0;orthogonalLoop=1;jettySize=auto;html=1;endArrow=classic;endFill=1;jumpStyle=arc;jumpSize=16;entryX=0;entryY=0.51;entryDx=0;entryDy=3;entryPerimeter=0;labelBackgroundColor=none;fontColor=default;" parent="9-844MQ3Dv2drRXLUXu9-8" source="9-844MQ3Dv2drRXLUXu9-15" target="9-844MQ3Dv2drRXLUXu9-12" edge="1">
          <mxGeometry relative="1" as="geometry">
            <mxPoint x="123.5" y="104" as="targetPoint" />
            <Array as="points">
              <mxPoint x="153.5" y="50" />
              <mxPoint x="153.5" y="104" />
            </Array>
          </mxGeometry>
        </mxCell>
        <mxCell id="9-844MQ3Dv2drRXLUXu9-18" style="edgeStyle=orthogonalEdgeStyle;rounded=0;orthogonalLoop=1;jettySize=auto;html=1;exitX=1;exitY=0.5;exitDx=0;exitDy=-5;exitPerimeter=0;entryX=0.5;entryY=0;entryDx=0;entryDy=0;labelBackgroundColor=none;fontColor=default;" parent="9-844MQ3Dv2drRXLUXu9-8" source="9-844MQ3Dv2drRXLUXu9-19" target="9-844MQ3Dv2drRXLUXu9-15" edge="1">
          <mxGeometry relative="1" as="geometry" />
        </mxCell>
        <mxCell id="9-844MQ3Dv2drRXLUXu9-19" value="" style="shadow=0;dashed=0;align=center;html=1;strokeWidth=1;shape=mxgraph.electrical.abstract.mux2;whiteSpace=wrap;rotation=0;flipH=0;flipV=1;labelBackgroundColor=none;" parent="9-844MQ3Dv2drRXLUXu9-8" vertex="1">
          <mxGeometry x="35" y="20" width="40" height="50" as="geometry" />
        </mxCell>
        <mxCell id="9-844MQ3Dv2drRXLUXu9-20" style="edgeStyle=orthogonalEdgeStyle;rounded=0;orthogonalLoop=1;jettySize=auto;html=1;exitDx=0;exitDy=-5;exitPerimeter=0;entryX=0;entryY=0.17;entryDx=0;entryDy=3;entryPerimeter=0;labelBackgroundColor=none;fontColor=default;" parent="9-844MQ3Dv2drRXLUXu9-8" source="9-844MQ3Dv2drRXLUXu9-25" target="9-844MQ3Dv2drRXLUXu9-19" edge="1">
          <mxGeometry relative="1" as="geometry">
            <mxPoint x="23.5" y="80" as="targetPoint" />
            <Array as="points">
              <mxPoint x="15" y="58" />
            </Array>
          </mxGeometry>
        </mxCell>
        <mxCell id="9-844MQ3Dv2drRXLUXu9-21" style="edgeStyle=orthogonalEdgeStyle;rounded=0;orthogonalLoop=1;jettySize=auto;html=1;exitX=0.25;exitY=0;exitDx=0;exitDy=0;entryX=0.25;entryY=1;entryDx=10;entryDy=0;entryPerimeter=0;labelBackgroundColor=none;fontColor=default;" parent="9-844MQ3Dv2drRXLUXu9-8" source="9-844MQ3Dv2drRXLUXu9-9" target="9-844MQ3Dv2drRXLUXu9-19" edge="1">
          <mxGeometry relative="1" as="geometry" />
        </mxCell>
        <mxCell id="9-844MQ3Dv2drRXLUXu9-22" value="I_Reset" style="text;html=1;align=center;verticalAlign=middle;resizable=0;points=[];autosize=1;strokeColor=none;fillColor=none;labelBackgroundColor=none;" parent="9-844MQ3Dv2drRXLUXu9-8" vertex="1">
          <mxGeometry x="60" width="60" height="30" as="geometry" />
        </mxCell>
        <mxCell id="9-844MQ3Dv2drRXLUXu9-23" value="LastNonZero" style="text;html=1;align=center;verticalAlign=middle;resizable=0;points=[];autosize=1;strokeColor=none;fillColor=none;labelBackgroundColor=none;" parent="9-844MQ3Dv2drRXLUXu9-8" vertex="1">
          <mxGeometry y="145" width="90" height="30" as="geometry" />
        </mxCell>
        <mxCell id="9-844MQ3Dv2drRXLUXu9-24" value="I_Value" style="text;html=1;align=center;verticalAlign=middle;resizable=0;points=[];autosize=1;strokeColor=none;fillColor=none;labelBackgroundColor=none;" parent="9-844MQ3Dv2drRXLUXu9-8" vertex="1">
          <mxGeometry x="161" y="55" width="60" height="30" as="geometry" />
        </mxCell>
        <mxCell id="9-844MQ3Dv2drRXLUXu9-25" value="" style="shape=waypoint;sketch=0;fillStyle=solid;size=6;pointerEvents=1;points=[];fillColor=none;resizable=0;rotatable=0;perimeter=centerPerimeter;snapToPoint=1;labelBackgroundColor=none;align=center;verticalAlign=middle;fontFamily=Helvetica;fontSize=12;fontColor=default;html=1;" parent="9-844MQ3Dv2drRXLUXu9-8" vertex="1">
          <mxGeometry x="5" y="84.96000000000004" width="20" height="20" as="geometry" />
        </mxCell>
        <mxCell id="9-844MQ3Dv2drRXLUXu9-26" value="" style="edgeStyle=orthogonalEdgeStyle;rounded=0;orthogonalLoop=1;jettySize=auto;html=1;exitX=1;exitY=0.5;exitDx=0;exitDy=-5;exitPerimeter=0;entryDx=0;entryDy=3;entryPerimeter=0;labelBackgroundColor=none;fontColor=default;endArrow=none;endFill=0;" parent="9-844MQ3Dv2drRXLUXu9-8" source="9-844MQ3Dv2drRXLUXu9-12" target="9-844MQ3Dv2drRXLUXu9-25" edge="1">
          <mxGeometry relative="1" as="geometry">
            <mxPoint x="3145" y="899" as="targetPoint" />
            <mxPoint x="3194" y="935" as="sourcePoint" />
          </mxGeometry>
        </mxCell>
        <mxCell id="9-844MQ3Dv2drRXLUXu9-30" style="edgeStyle=orthogonalEdgeStyle;rounded=0;orthogonalLoop=1;jettySize=auto;html=1;entryX=1;entryY=0.5;entryDx=0;entryDy=0;" parent="9-844MQ3Dv2drRXLUXu9-8" source="9-844MQ3Dv2drRXLUXu9-27" target="9-844MQ3Dv2drRXLUXu9-11" edge="1">
          <mxGeometry relative="1" as="geometry">
            <Array as="points">
              <mxPoint x="207" y="150" />
            </Array>
          </mxGeometry>
        </mxCell>
        <mxCell id="9-844MQ3Dv2drRXLUXu9-27" value="" style="shape=waypoint;sketch=0;fillStyle=solid;size=6;pointerEvents=1;points=[];fillColor=none;resizable=0;rotatable=0;perimeter=centerPerimeter;snapToPoint=1;labelBackgroundColor=none;align=center;verticalAlign=middle;fontFamily=Helvetica;fontSize=12;fontColor=default;html=1;" parent="9-844MQ3Dv2drRXLUXu9-8" vertex="1">
          <mxGeometry x="197" y="77" width="20" height="20" as="geometry" />
        </mxCell>
        <mxCell id="9-844MQ3Dv2drRXLUXu9-28" style="edgeStyle=orthogonalEdgeStyle;rounded=0;orthogonalLoop=1;jettySize=auto;html=1;entryX=0;entryY=0.17;entryDx=0;entryDy=3;entryPerimeter=0;jumpStyle=arc;jumpSize=16;labelBackgroundColor=none;fontColor=default;" parent="9-844MQ3Dv2drRXLUXu9-8" source="9-844MQ3Dv2drRXLUXu9-27" target="9-844MQ3Dv2drRXLUXu9-12" edge="1">
          <mxGeometry relative="1" as="geometry" />
        </mxCell>
        <mxCell id="2Uuv6Jr3GKPPrzBkkDZs-175" value="" style="edgeStyle=orthogonalEdgeStyle;rounded=0;orthogonalLoop=1;jettySize=auto;html=1;fontFamily=Helvetica;fontSize=12;fontColor=default;startArrow=none;startFill=0;sourcePerimeterSpacing=11;startSize=10;endArrow=none;endFill=0;entryX=0.375;entryY=0.428;entryDx=0;entryDy=0;entryPerimeter=0;" parent="1" source="9-844MQ3Dv2drRXLUXu9-25" target="2Uuv6Jr3GKPPrzBkkDZs-174" edge="1">
          <mxGeometry relative="1" as="geometry">
            <mxPoint x="2375.785" y="-152.51216" as="sourcePoint" />
            <mxPoint x="2280" y="103" as="targetPoint" />
            <Array as="points" />
          </mxGeometry>
        </mxCell>
        <mxCell id="2Uuv6Jr3GKPPrzBkkDZs-180" style="edgeStyle=orthogonalEdgeStyle;rounded=0;orthogonalLoop=1;jettySize=auto;html=1;exitDx=0;exitDy=0;exitPerimeter=0;entryX=0.25;entryY=0;entryDx=0;entryDy=0;fontFamily=Helvetica;fontSize=12;fontColor=default;" parent="1" source="QJshhDIBLvKhUWag_ISZ-64" target="9-844MQ3Dv2drRXLUXu9-9" edge="1">
          <mxGeometry relative="1" as="geometry">
            <Array as="points">
              <mxPoint x="2250" y="-149" />
              <mxPoint x="2250" y="-255" />
              <mxPoint x="2408" y="-255" />
              <mxPoint x="2408" y="-229" />
            </Array>
            <mxPoint x="2429.75" y="-239.53999999999996" as="targetPoint" />
          </mxGeometry>
        </mxCell>
        <mxCell id="2Uuv6Jr3GKPPrzBkkDZs-163" style="edgeStyle=orthogonalEdgeStyle;rounded=0;orthogonalLoop=1;jettySize=auto;html=1;exitX=1;exitY=0.17;exitDx=0;exitDy=0;exitPerimeter=0;fontFamily=Helvetica;fontSize=12;fontColor=default;" parent="1" source="2Uuv6Jr3GKPPrzBkkDZs-156" target="9-844MQ3Dv2drRXLUXu9-27" edge="1">
          <mxGeometry relative="1" as="geometry">
            <mxPoint x="2590" y="-160" as="targetPoint" />
            <Array as="points">
              <mxPoint x="2730" y="-125" />
              <mxPoint x="2730" y="-150" />
            </Array>
          </mxGeometry>
        </mxCell>
        <mxCell id="2Uuv6Jr3GKPPrzBkkDZs-152" value="" style="shape=or;whiteSpace=wrap;html=1;" parent="1" vertex="1">
          <mxGeometry x="2735" y="217" width="17.5" height="23" as="geometry" />
        </mxCell>
        <mxCell id="2Uuv6Jr3GKPPrzBkkDZs-153" style="edgeStyle=orthogonalEdgeStyle;rounded=0;orthogonalLoop=1;jettySize=auto;html=1;exitX=1;exitY=0.5;exitDx=0;exitDy=0;fontFamily=Helvetica;fontSize=12;fontColor=default;entryX=0;entryY=0.25;entryDx=0;entryDy=0;entryPerimeter=0;" parent="1" source="2Uuv6Jr3GKPPrzBkkDZs-93" target="2Uuv6Jr3GKPPrzBkkDZs-152" edge="1">
          <mxGeometry relative="1" as="geometry">
            <mxPoint x="2700" y="115" as="sourcePoint" />
          </mxGeometry>
        </mxCell>
        <mxCell id="2Uuv6Jr3GKPPrzBkkDZs-154" style="edgeStyle=orthogonalEdgeStyle;rounded=0;orthogonalLoop=1;jettySize=auto;html=1;exitX=1;exitY=0.5;exitDx=0;exitDy=0;entryX=0;entryY=0.75;entryDx=0;entryDy=0;entryPerimeter=0;fontFamily=Helvetica;fontSize=12;fontColor=default;exitPerimeter=0;" parent="1" source="QJshhDIBLvKhUWag_ISZ-15" target="2Uuv6Jr3GKPPrzBkkDZs-152" edge="1">
          <mxGeometry relative="1" as="geometry">
            <mxPoint x="2661" y="328" as="sourcePoint" />
          </mxGeometry>
        </mxCell>
        <mxCell id="2Uuv6Jr3GKPPrzBkkDZs-157" style="edgeStyle=orthogonalEdgeStyle;rounded=0;orthogonalLoop=1;jettySize=auto;html=1;exitDx=0;exitDy=0;exitPerimeter=0;entryX=1;entryY=0.5;entryDx=0;entryDy=0;entryPerimeter=0;fontFamily=Helvetica;fontSize=12;fontColor=default;" parent="1" source="ZAlOu0CJ_7-fTKXVSEOV-3" target="2Uuv6Jr3GKPPrzBkkDZs-156" edge="1">
          <mxGeometry relative="1" as="geometry">
            <Array as="points">
              <mxPoint x="2770" y="138" />
            </Array>
          </mxGeometry>
        </mxCell>
        <mxCell id="2Uuv6Jr3GKPPrzBkkDZs-158" style="edgeStyle=elbowEdgeStyle;rounded=0;orthogonalLoop=1;jettySize=auto;html=1;exitX=1;exitY=0.25;exitDx=0;exitDy=0;entryX=1;entryY=0.33;entryDx=0;entryDy=0;entryPerimeter=0;fontFamily=Helvetica;fontSize=12;fontColor=default;" parent="1" source="2Uuv6Jr3GKPPrzBkkDZs-93" target="2Uuv6Jr3GKPPrzBkkDZs-156" edge="1">
          <mxGeometry relative="1" as="geometry" />
        </mxCell>
        <mxCell id="2Uuv6Jr3GKPPrzBkkDZs-159" style="edgeStyle=elbowEdgeStyle;rounded=0;orthogonalLoop=1;jettySize=auto;html=1;exitX=1;exitY=0.25;exitDx=0;exitDy=0;entryX=1;entryY=0.67;entryDx=0;entryDy=0;entryPerimeter=0;fontFamily=Helvetica;fontSize=12;fontColor=default;endSize=6;jumpStyle=arc;jumpSize=20;exitPerimeter=0;" parent="1" source="QJshhDIBLvKhUWag_ISZ-15" target="2Uuv6Jr3GKPPrzBkkDZs-156" edge="1">
          <mxGeometry relative="1" as="geometry">
            <mxPoint x="2661" y="273" as="sourcePoint" />
          </mxGeometry>
        </mxCell>
        <mxCell id="2Uuv6Jr3GKPPrzBkkDZs-162" value="I_Winner" style="text;html=1;align=center;verticalAlign=middle;resizable=0;points=[];autosize=1;strokeColor=none;fillColor=none;fontSize=12;fontFamily=Helvetica;fontColor=default;" parent="1" vertex="1">
          <mxGeometry x="2770" y="-165" width="70" height="30" as="geometry" />
        </mxCell>
        <mxCell id="2Uuv6Jr3GKPPrzBkkDZs-164" style="edgeStyle=orthogonalEdgeStyle;rounded=0;orthogonalLoop=1;jettySize=auto;html=1;entryX=0;entryY=0.75;entryDx=0;entryDy=0;entryPerimeter=0;fontFamily=Helvetica;fontSize=12;fontColor=default;" parent="1" source="2Uuv6Jr3GKPPrzBkkDZs-174" target="2Uuv6Jr3GKPPrzBkkDZs-93" edge="1">
          <mxGeometry relative="1" as="geometry">
            <Array as="points">
              <mxPoint x="2300" y="138" />
              <mxPoint x="2310" y="138" />
            </Array>
          </mxGeometry>
        </mxCell>
        <mxCell id="2Uuv6Jr3GKPPrzBkkDZs-165" style="edgeStyle=orthogonalEdgeStyle;rounded=0;orthogonalLoop=1;jettySize=auto;html=1;exitDx=0;exitDy=0;entryX=0;entryY=0.75;entryDx=0;entryDy=0;entryPerimeter=0;fontFamily=Helvetica;fontSize=12;fontColor=default;exitPerimeter=0;startArrow=none;startFill=0;sourcePerimeterSpacing=11;startSize=10;" parent="1" source="2Uuv6Jr3GKPPrzBkkDZs-174" target="QJshhDIBLvKhUWag_ISZ-15" edge="1">
          <mxGeometry relative="1" as="geometry">
            <Array as="points">
              <mxPoint x="2300" y="435" />
            </Array>
            <mxPoint x="2353.616" y="373.98" as="targetPoint" />
          </mxGeometry>
        </mxCell>
        <mxCell id="2Uuv6Jr3GKPPrzBkkDZs-166" value="I_Player1Move" style="text;html=1;align=center;verticalAlign=middle;resizable=0;points=[];autosize=1;strokeColor=none;fillColor=none;fontSize=12;fontFamily=Helvetica;fontColor=default;" parent="1" vertex="1">
          <mxGeometry x="2161" y="20" width="100" height="30" as="geometry" />
        </mxCell>
        <mxCell id="2Uuv6Jr3GKPPrzBkkDZs-167" value="I_Player2Move" style="text;html=1;align=center;verticalAlign=middle;resizable=0;points=[];autosize=1;strokeColor=none;fillColor=none;fontSize=12;fontFamily=Helvetica;fontColor=default;" parent="1" vertex="1">
          <mxGeometry x="2170" y="300" width="100" height="30" as="geometry" />
        </mxCell>
        <mxCell id="2Uuv6Jr3GKPPrzBkkDZs-174" value="" style="shape=waypoint;sketch=0;fillStyle=solid;size=6;pointerEvents=1;points=[];fillColor=none;resizable=0;rotatable=0;perimeter=centerPerimeter;snapToPoint=1;labelBackgroundColor=none;align=center;verticalAlign=middle;fontFamily=Helvetica;fontSize=12;fontColor=default;html=1;" parent="1" vertex="1">
          <mxGeometry x="2290" y="126.03999999999999" width="20" height="20" as="geometry" />
        </mxCell>
        <mxCell id="2Uuv6Jr3GKPPrzBkkDZs-172" style="edgeStyle=orthogonalEdgeStyle;rounded=0;orthogonalLoop=1;jettySize=auto;html=1;exitX=0;exitY=0.75;exitDx=0;exitDy=0;exitPerimeter=0;entryX=0;entryY=0.5;entryDx=0;entryDy=0;fontFamily=Helvetica;fontSize=12;fontColor=default;entryPerimeter=0;jumpStyle=arc;startSize=7;jumpSize=12;" parent="1" source="2Uuv6Jr3GKPPrzBkkDZs-156" target="QJshhDIBLvKhUWag_ISZ-15" edge="1">
          <mxGeometry relative="1" as="geometry">
            <Array as="points">
              <mxPoint x="2170" y="335" />
              <mxPoint x="2320" y="335" />
              <mxPoint x="2320" y="370" />
            </Array>
            <mxPoint x="2352.384" y="333.94000000000005" as="targetPoint" />
          </mxGeometry>
        </mxCell>
        <mxCell id="2Uuv6Jr3GKPPrzBkkDZs-176" value="O_AreMovesValid" style="text;html=1;align=center;verticalAlign=middle;resizable=0;points=[];autosize=1;strokeColor=none;fillColor=none;fontSize=12;fontFamily=Helvetica;fontColor=default;" parent="1" vertex="1">
          <mxGeometry x="2720" y="100" width="120" height="30" as="geometry" />
        </mxCell>
        <mxCell id="2Uuv6Jr3GKPPrzBkkDZs-177" value="O_Player1Move" style="text;html=1;align=center;verticalAlign=middle;resizable=0;points=[];autosize=1;strokeColor=none;fillColor=none;fontSize=12;fontFamily=Helvetica;fontColor=default;" parent="1" vertex="1">
          <mxGeometry x="2742.5" y="-37" width="110" height="30" as="geometry" />
        </mxCell>
        <mxCell id="2Uuv6Jr3GKPPrzBkkDZs-178" value="O_Player2Move" style="text;html=1;align=center;verticalAlign=middle;resizable=0;points=[];autosize=1;strokeColor=none;fillColor=none;fontSize=12;fontFamily=Helvetica;fontColor=default;" parent="1" vertex="1">
          <mxGeometry x="2735" y="235" width="110" height="30" as="geometry" />
        </mxCell>
        <mxCell id="2Uuv6Jr3GKPPrzBkkDZs-179" value="I_Reset" style="text;html=1;align=center;verticalAlign=middle;resizable=0;points=[];autosize=1;strokeColor=none;fillColor=none;fontSize=12;fontFamily=Helvetica;fontColor=default;" parent="1" vertex="1">
          <mxGeometry x="2170.5" y="-185" width="60" height="30" as="geometry" />
        </mxCell>
        <mxCell id="2Uuv6Jr3GKPPrzBkkDZs-181" value="Players" style="text;html=1;align=center;verticalAlign=middle;resizable=0;points=[];autosize=1;strokeColor=none;fillColor=none;fontSize=12;fontFamily=Helvetica;fontColor=default;" parent="1" vertex="1">
          <mxGeometry x="2785" y="505" width="60" height="30" as="geometry" />
        </mxCell>
        <mxCell id="QJshhDIBLvKhUWag_ISZ-65" value="" style="edgeStyle=elbowEdgeStyle;rounded=0;orthogonalLoop=1;jettySize=auto;html=1;exitX=0;exitY=0.14;exitDx=0;exitDy=0;exitPerimeter=0;entryDx=0;entryDy=0;fontFamily=Helvetica;fontSize=12;fontColor=default;endArrow=none;endFill=0;" parent="1" source="2Uuv6Jr3GKPPrzBkkDZs-156" target="QJshhDIBLvKhUWag_ISZ-64" edge="1">
          <mxGeometry relative="1" as="geometry">
            <mxPoint x="2408" y="-229" as="targetPoint" />
            <mxPoint x="2170" y="-149" as="sourcePoint" />
          </mxGeometry>
        </mxCell>
        <mxCell id="QJshhDIBLvKhUWag_ISZ-64" value="" style="shape=waypoint;sketch=0;fillStyle=solid;size=6;pointerEvents=1;points=[];fillColor=none;resizable=0;rotatable=0;perimeter=centerPerimeter;snapToPoint=1;" parent="1" vertex="1">
          <mxGeometry x="2240" y="-159.5" width="20" height="20" as="geometry" />
        </mxCell>
        <mxCell id="QJshhDIBLvKhUWag_ISZ-66" style="edgeStyle=orthogonalEdgeStyle;rounded=0;orthogonalLoop=1;jettySize=auto;html=1;entryX=0;entryY=0.33;entryDx=0;entryDy=0;entryPerimeter=0;jumpStyle=arc;jumpSize=9;" parent="1" source="QJshhDIBLvKhUWag_ISZ-67" target="2Uuv6Jr3GKPPrzBkkDZs-93" edge="1">
          <mxGeometry relative="1" as="geometry">
            <Array as="points">
              <mxPoint x="2271" y="53" />
              <mxPoint x="2290" y="53" />
            </Array>
          </mxGeometry>
        </mxCell>
        <mxCell id="QJshhDIBLvKhUWag_ISZ-68" value="" style="edgeStyle=orthogonalEdgeStyle;rounded=0;orthogonalLoop=1;jettySize=auto;html=1;entryDx=0;entryDy=0;entryPerimeter=0;endArrow=none;endFill=0;" parent="1" source="QJshhDIBLvKhUWag_ISZ-64" target="QJshhDIBLvKhUWag_ISZ-67" edge="1">
          <mxGeometry relative="1" as="geometry">
            <mxPoint x="2250" y="-149" as="sourcePoint" />
            <mxPoint x="2353" y="20" as="targetPoint" />
            <Array as="points">
              <mxPoint x="2272" y="-149" />
            </Array>
          </mxGeometry>
        </mxCell>
        <mxCell id="QJshhDIBLvKhUWag_ISZ-67" value="" style="shape=waypoint;sketch=0;fillStyle=solid;size=6;pointerEvents=1;points=[];fillColor=none;resizable=0;rotatable=0;perimeter=centerPerimeter;snapToPoint=1;" parent="1" vertex="1">
          <mxGeometry x="2261" y="41" width="20" height="20" as="geometry" />
        </mxCell>
        <mxCell id="QJshhDIBLvKhUWag_ISZ-69" style="edgeStyle=orthogonalEdgeStyle;rounded=0;orthogonalLoop=1;jettySize=auto;html=1;entryX=0;entryY=0.33;entryDx=0;entryDy=0;entryPerimeter=0;jumpStyle=arc;jumpSize=11;exitX=0.517;exitY=1.017;exitDx=0;exitDy=0;exitPerimeter=0;" parent="1" source="QJshhDIBLvKhUWag_ISZ-67" target="QJshhDIBLvKhUWag_ISZ-15" edge="1">
          <mxGeometry relative="1" as="geometry">
            <Array as="points">
              <mxPoint x="2271" y="326" />
              <mxPoint x="2330" y="326" />
            </Array>
            <mxPoint x="2272" y="55" as="sourcePoint" />
          </mxGeometry>
        </mxCell>
        <mxCell id="2Uuv6Jr3GKPPrzBkkDZs-173" style="edgeStyle=orthogonalEdgeStyle;rounded=0;orthogonalLoop=1;jettySize=auto;html=1;exitX=0;exitY=0.43;exitDx=0;exitDy=0;exitPerimeter=0;fontFamily=Helvetica;fontSize=12;fontColor=default;jumpStyle=arc;jumpSize=10;" parent="1" source="2Uuv6Jr3GKPPrzBkkDZs-156" edge="1">
          <mxGeometry relative="1" as="geometry">
            <mxPoint x="2353" y="90" as="targetPoint" />
            <Array as="points">
              <mxPoint x="2200" y="82" />
              <mxPoint x="2200" y="74" />
              <mxPoint x="2280" y="74" />
              <mxPoint x="2280" y="90" />
            </Array>
          </mxGeometry>
        </mxCell>
        <mxCell id="ZAlOu0CJ_7-fTKXVSEOV-4" value="" style="edgeStyle=orthogonalEdgeStyle;rounded=0;orthogonalLoop=1;jettySize=auto;html=1;exitX=1;exitY=0.5;exitDx=0;exitDy=0;exitPerimeter=0;entryDx=0;entryDy=0;entryPerimeter=0;fontFamily=Helvetica;fontSize=12;fontColor=default;endArrow=none;endFill=0;" parent="1" source="2Uuv6Jr3GKPPrzBkkDZs-152" target="ZAlOu0CJ_7-fTKXVSEOV-3" edge="1">
          <mxGeometry relative="1" as="geometry">
            <mxPoint x="2753" y="224" as="sourcePoint" />
            <mxPoint x="2840" y="137" as="targetPoint" />
            <Array as="points">
              <mxPoint x="2770" y="229" />
            </Array>
          </mxGeometry>
        </mxCell>
        <mxCell id="ZAlOu0CJ_7-fTKXVSEOV-3" value="" style="shape=waypoint;sketch=0;fillStyle=solid;size=6;pointerEvents=1;points=[];fillColor=none;resizable=0;rotatable=0;perimeter=centerPerimeter;snapToPoint=1;" parent="1" vertex="1">
          <mxGeometry x="2760" y="200" width="20" height="20" as="geometry" />
        </mxCell>
        <mxCell id="ZAlOu0CJ_7-fTKXVSEOV-5" style="edgeStyle=orthogonalEdgeStyle;rounded=0;orthogonalLoop=1;jettySize=auto;html=1;entryX=0;entryY=0.17;entryDx=0;entryDy=0;entryPerimeter=0;jumpStyle=arc;jumpSize=13;" parent="1" source="ZAlOu0CJ_7-fTKXVSEOV-6" target="2Uuv6Jr3GKPPrzBkkDZs-93" edge="1">
          <mxGeometry relative="1" as="geometry">
            <Array as="points">
              <mxPoint x="2320" y="210" />
              <mxPoint x="2320" y="-7" />
              <mxPoint x="2353" y="-7" />
            </Array>
          </mxGeometry>
        </mxCell>
        <mxCell id="ZAlOu0CJ_7-fTKXVSEOV-7" value="" style="edgeStyle=orthogonalEdgeStyle;rounded=0;orthogonalLoop=1;jettySize=auto;html=1;entryDx=0;entryDy=0;entryPerimeter=0;jumpStyle=arc;jumpSize=13;endArrow=none;endFill=0;" parent="1" source="ZAlOu0CJ_7-fTKXVSEOV-3" target="ZAlOu0CJ_7-fTKXVSEOV-6" edge="1">
          <mxGeometry relative="1" as="geometry">
            <mxPoint x="2770" y="190" as="sourcePoint" />
            <mxPoint x="2353" y="-16" as="targetPoint" />
            <Array as="points">
              <mxPoint x="2770" y="210" />
            </Array>
          </mxGeometry>
        </mxCell>
        <mxCell id="ZAlOu0CJ_7-fTKXVSEOV-6" value="" style="shape=waypoint;sketch=0;fillStyle=solid;size=6;pointerEvents=1;points=[];fillColor=none;resizable=0;rotatable=0;perimeter=centerPerimeter;snapToPoint=1;" parent="1" vertex="1">
          <mxGeometry x="2320" y="200" width="20" height="20" as="geometry" />
        </mxCell>
        <mxCell id="ZAlOu0CJ_7-fTKXVSEOV-8" style="edgeStyle=orthogonalEdgeStyle;rounded=0;orthogonalLoop=1;jettySize=auto;html=1;entryX=0;entryY=0.17;entryDx=0;entryDy=0;entryPerimeter=0;exitX=0.567;exitY=0.64;exitDx=0;exitDy=0;exitPerimeter=0;" parent="1" source="ZAlOu0CJ_7-fTKXVSEOV-6" target="QJshhDIBLvKhUWag_ISZ-15" edge="1">
          <mxGeometry relative="1" as="geometry">
            <mxPoint x="2330" y="222" as="sourcePoint" />
            <Array as="points">
              <mxPoint x="2330" y="284" />
            </Array>
          </mxGeometry>
        </mxCell>
        <mxCell id="ZAlOu0CJ_7-fTKXVSEOV-12" value="" style="group" parent="1" vertex="1" connectable="0">
          <mxGeometry x="2316" y="-20.000000000000057" width="345" height="220.00000000000006" as="geometry" />
        </mxCell>
        <mxCell id="2Uuv6Jr3GKPPrzBkkDZs-93" value="" style="rounded=0;whiteSpace=wrap;html=1;labelBackgroundColor=none;align=center;verticalAlign=middle;fontFamily=Helvetica;fontSize=12;fontColor=default;fillColor=none;gradientColor=none;points=[[0,0,0,0,0],[0,0.17,0,0,0],[0,0.25,0,0,0],[0,0.33,0,0,0],[0,0.5,0,0,0],[0,0.67,0,0,0],[0,0.75,0,0,0],[0,0.83,0,0,0],[0,1,0,0,0],[0.25,0,0,0,0],[0.25,1,0,0,0],[0.5,0,0,0,0],[0.5,1,0,0,0],[0.75,0,0,0,0],[0.75,1,0,0,0],[1,0,0,0,0],[1,0.25,0,0,0],[1,0.5,0,0,0],[1,0.75,0,0,0],[1,1,0,0,0]];" parent="ZAlOu0CJ_7-fTKXVSEOV-12" vertex="1">
          <mxGeometry x="37" y="-30" width="308" height="250" as="geometry" />
        </mxCell>
        <mxCell id="2Uuv6Jr3GKPPrzBkkDZs-170" value="&lt;font style=&quot;font-size: 9px;&quot;&gt;01&lt;/font&gt;" style="text;html=1;align=center;verticalAlign=middle;resizable=0;points=[];autosize=1;strokeColor=none;fillColor=none;fontSize=12;fontFamily=Helvetica;fontColor=default;" parent="ZAlOu0CJ_7-fTKXVSEOV-12" vertex="1">
          <mxGeometry y="123.00000000000006" width="30" height="30" as="geometry" />
        </mxCell>
        <mxCell id="2Uuv6Jr3GKPPrzBkkDZs-95" value="==" style="whiteSpace=wrap;html=1;aspect=fixed;labelBackgroundColor=none;" parent="ZAlOu0CJ_7-fTKXVSEOV-12" vertex="1">
          <mxGeometry x="147" y="93" width="30" height="30" as="geometry" />
        </mxCell>
        <mxCell id="2Uuv6Jr3GKPPrzBkkDZs-97" value="NOR" style="whiteSpace=wrap;html=1;aspect=fixed;labelBackgroundColor=none;" parent="ZAlOu0CJ_7-fTKXVSEOV-12" vertex="1">
          <mxGeometry x="147" y="172.96000000000004" width="30" height="30" as="geometry" />
        </mxCell>
        <mxCell id="2Uuv6Jr3GKPPrzBkkDZs-98" style="edgeStyle=orthogonalEdgeStyle;rounded=0;orthogonalLoop=1;jettySize=auto;html=1;fontFamily=Helvetica;fontSize=12;fontColor=default;entryX=0;entryY=0.25;entryDx=0;entryDy=0;" parent="ZAlOu0CJ_7-fTKXVSEOV-12" target="2Uuv6Jr3GKPPrzBkkDZs-100" edge="1">
          <mxGeometry relative="1" as="geometry">
            <mxPoint x="25" y="141" as="sourcePoint" />
          </mxGeometry>
        </mxCell>
        <mxCell id="2Uuv6Jr3GKPPrzBkkDZs-99" style="edgeStyle=orthogonalEdgeStyle;rounded=0;orthogonalLoop=1;jettySize=auto;html=1;fontFamily=Helvetica;fontSize=12;fontColor=default;entryX=0;entryY=0.75;entryDx=0;entryDy=0;" parent="ZAlOu0CJ_7-fTKXVSEOV-12" target="2Uuv6Jr3GKPPrzBkkDZs-100" edge="1">
          <mxGeometry relative="1" as="geometry">
            <mxPoint x="25" y="156" as="sourcePoint" />
          </mxGeometry>
        </mxCell>
        <mxCell id="2Uuv6Jr3GKPPrzBkkDZs-100" value="==" style="whiteSpace=wrap;html=1;aspect=fixed;labelBackgroundColor=none;" parent="ZAlOu0CJ_7-fTKXVSEOV-12" vertex="1">
          <mxGeometry x="147" y="133.00000000000006" width="30" height="30" as="geometry" />
        </mxCell>
        <mxCell id="2Uuv6Jr3GKPPrzBkkDZs-104" style="edgeStyle=orthogonalEdgeStyle;rounded=0;orthogonalLoop=1;jettySize=auto;html=1;exitX=1;exitY=0.5;exitDx=0;exitDy=0;entryX=0;entryY=0.25;entryDx=0;entryDy=0;entryPerimeter=0;" parent="ZAlOu0CJ_7-fTKXVSEOV-12" source="2Uuv6Jr3GKPPrzBkkDZs-95" target="2Uuv6Jr3GKPPrzBkkDZs-107" edge="1">
          <mxGeometry relative="1" as="geometry" />
        </mxCell>
        <mxCell id="2Uuv6Jr3GKPPrzBkkDZs-105" style="edgeStyle=orthogonalEdgeStyle;rounded=0;orthogonalLoop=1;jettySize=auto;html=1;entryX=0;entryY=0.75;entryDx=0;entryDy=0;entryPerimeter=0;" parent="ZAlOu0CJ_7-fTKXVSEOV-12" source="2Uuv6Jr3GKPPrzBkkDZs-100" target="2Uuv6Jr3GKPPrzBkkDZs-107" edge="1">
          <mxGeometry relative="1" as="geometry" />
        </mxCell>
        <mxCell id="2Uuv6Jr3GKPPrzBkkDZs-106" value="" style="group" parent="ZAlOu0CJ_7-fTKXVSEOV-12" vertex="1" connectable="0">
          <mxGeometry x="216.5" y="116" width="22.5" height="23" as="geometry" />
        </mxCell>
        <mxCell id="2Uuv6Jr3GKPPrzBkkDZs-107" value="" style="shape=or;whiteSpace=wrap;html=1;" parent="2Uuv6Jr3GKPPrzBkkDZs-106" vertex="1">
          <mxGeometry width="17.5" height="23" as="geometry" />
        </mxCell>
        <mxCell id="2Uuv6Jr3GKPPrzBkkDZs-108" value="" style="ellipse;whiteSpace=wrap;html=1;aspect=fixed;" parent="2Uuv6Jr3GKPPrzBkkDZs-106" vertex="1">
          <mxGeometry x="17.5" y="9" width="5" height="5" as="geometry" />
        </mxCell>
        <mxCell id="2Uuv6Jr3GKPPrzBkkDZs-109" value="" style="group" parent="ZAlOu0CJ_7-fTKXVSEOV-12" vertex="1" connectable="0">
          <mxGeometry x="223" y="178.98000000000002" width="16" height="17.960000000000036" as="geometry" />
        </mxCell>
        <mxCell id="2Uuv6Jr3GKPPrzBkkDZs-110" value="" style="triangle;whiteSpace=wrap;html=1;" parent="2Uuv6Jr3GKPPrzBkkDZs-109" vertex="1">
          <mxGeometry width="11" height="17.96" as="geometry" />
        </mxCell>
        <mxCell id="2Uuv6Jr3GKPPrzBkkDZs-111" value="" style="ellipse;whiteSpace=wrap;html=1;aspect=fixed;" parent="2Uuv6Jr3GKPPrzBkkDZs-109" vertex="1">
          <mxGeometry x="11" y="6.480000000000018" width="5" height="5" as="geometry" />
        </mxCell>
        <mxCell id="2Uuv6Jr3GKPPrzBkkDZs-112" style="edgeStyle=orthogonalEdgeStyle;rounded=0;orthogonalLoop=1;jettySize=auto;html=1;exitX=1;exitY=0.5;exitDx=0;exitDy=0;exitPerimeter=0;entryX=1;entryY=0.5;entryDx=0;entryDy=0;fontFamily=Helvetica;fontSize=12;fontColor=default;" parent="ZAlOu0CJ_7-fTKXVSEOV-12" source="2Uuv6Jr3GKPPrzBkkDZs-113" target="2Uuv6Jr3GKPPrzBkkDZs-93" edge="1">
          <mxGeometry relative="1" as="geometry" />
        </mxCell>
        <mxCell id="2Uuv6Jr3GKPPrzBkkDZs-113" value="" style="shape=or;whiteSpace=wrap;html=1;" parent="ZAlOu0CJ_7-fTKXVSEOV-12" vertex="1">
          <mxGeometry x="281.75" y="149.96000000000004" width="17.5" height="23" as="geometry" />
        </mxCell>
        <mxCell id="2Uuv6Jr3GKPPrzBkkDZs-114" style="edgeStyle=orthogonalEdgeStyle;rounded=0;orthogonalLoop=1;jettySize=auto;html=1;exitX=1;exitY=0.5;exitDx=0;exitDy=0;entryX=0;entryY=0.75;entryDx=0;entryDy=0;entryPerimeter=0;" parent="ZAlOu0CJ_7-fTKXVSEOV-12" source="2Uuv6Jr3GKPPrzBkkDZs-111" target="2Uuv6Jr3GKPPrzBkkDZs-113" edge="1">
          <mxGeometry relative="1" as="geometry" />
        </mxCell>
        <mxCell id="2Uuv6Jr3GKPPrzBkkDZs-115" style="edgeStyle=orthogonalEdgeStyle;rounded=0;orthogonalLoop=1;jettySize=auto;html=1;exitX=1;exitY=0.5;exitDx=0;exitDy=0;entryX=0;entryY=0.25;entryDx=0;entryDy=0;entryPerimeter=0;" parent="ZAlOu0CJ_7-fTKXVSEOV-12" source="2Uuv6Jr3GKPPrzBkkDZs-108" target="2Uuv6Jr3GKPPrzBkkDZs-113" edge="1">
          <mxGeometry relative="1" as="geometry" />
        </mxCell>
        <mxCell id="2Uuv6Jr3GKPPrzBkkDZs-116" style="edgeStyle=orthogonalEdgeStyle;rounded=0;orthogonalLoop=1;jettySize=auto;html=1;exitX=1;exitY=0.25;exitDx=0;exitDy=0;entryX=0;entryY=0.25;entryDx=0;entryDy=0;" parent="ZAlOu0CJ_7-fTKXVSEOV-12" source="QJshhDIBLvKhUWag_ISZ-2" target="2Uuv6Jr3GKPPrzBkkDZs-95" edge="1">
          <mxGeometry relative="1" as="geometry">
            <Array as="points">
              <mxPoint x="190" y="23.000000000000057" />
              <mxPoint x="190" y="83.00000000000006" />
              <mxPoint x="127" y="83.00000000000006" />
              <mxPoint x="127" y="101.00000000000006" />
            </Array>
            <mxPoint x="162.00497835497845" y="50.00000000000006" as="sourcePoint" />
          </mxGeometry>
        </mxCell>
        <mxCell id="2Uuv6Jr3GKPPrzBkkDZs-118" value="&lt;font style=&quot;font-size: 9px;&quot;&gt;I_LastWinner&lt;/font&gt;" style="text;html=1;align=center;verticalAlign=middle;resizable=1;points=[];autosize=1;strokeColor=none;fillColor=none;labelBackgroundColor=none;" parent="ZAlOu0CJ_7-fTKXVSEOV-12" vertex="1">
          <mxGeometry x="45" y="141.24" width="80" height="13.52" as="geometry" />
        </mxCell>
        <mxCell id="2Uuv6Jr3GKPPrzBkkDZs-119" value="&lt;font style=&quot;font-size: 9px;&quot;&gt;I_Player&lt;/font&gt;" style="text;html=1;align=center;verticalAlign=middle;resizable=1;points=[];autosize=1;strokeColor=none;fillColor=none;movable=1;rotatable=1;deletable=1;editable=1;locked=0;connectable=1;labelBackgroundColor=none;" parent="ZAlOu0CJ_7-fTKXVSEOV-12" vertex="1">
          <mxGeometry x="51" y="127" width="60" height="13" as="geometry" />
        </mxCell>
        <mxCell id="2Uuv6Jr3GKPPrzBkkDZs-121" value="&lt;font style=&quot;font-size: 9px;&quot;&gt;I_Move&lt;/font&gt;" style="text;html=1;align=center;verticalAlign=middle;resizable=1;points=[];autosize=1;strokeColor=none;fillColor=none;fontSize=12;fontFamily=Helvetica;fontColor=default;" parent="ZAlOu0CJ_7-fTKXVSEOV-12" vertex="1">
          <mxGeometry x="45" y="88.04000000000002" width="50" height="19" as="geometry" />
        </mxCell>
        <mxCell id="2Uuv6Jr3GKPPrzBkkDZs-123" value="" style="rounded=0;whiteSpace=wrap;html=1;labelBackgroundColor=none;align=center;verticalAlign=middle;fontFamily=Helvetica;fontSize=12;fontColor=default;fillColor=none;gradientColor=none;" parent="ZAlOu0CJ_7-fTKXVSEOV-12" vertex="1">
          <mxGeometry x="25.25" y="107.03999999999996" height="9.96" as="geometry" />
        </mxCell>
        <mxCell id="2Uuv6Jr3GKPPrzBkkDZs-124" value="O_IsMoveValid" style="text;html=1;align=center;verticalAlign=middle;resizable=0;points=[];autosize=1;strokeColor=none;fillColor=none;fontSize=12;fontFamily=Helvetica;fontColor=default;" parent="ZAlOu0CJ_7-fTKXVSEOV-12" vertex="1">
          <mxGeometry x="239" y="77.04000000000002" width="100" height="30" as="geometry" />
        </mxCell>
        <mxCell id="2Uuv6Jr3GKPPrzBkkDZs-125" style="edgeStyle=orthogonalEdgeStyle;rounded=0;orthogonalLoop=1;jettySize=auto;html=1;exitX=1;exitY=0.5;exitDx=0;exitDy=0;entryX=0;entryY=0.5;entryDx=0;entryDy=0;" parent="ZAlOu0CJ_7-fTKXVSEOV-12" source="2Uuv6Jr3GKPPrzBkkDZs-97" target="2Uuv6Jr3GKPPrzBkkDZs-110" edge="1">
          <mxGeometry relative="1" as="geometry" />
        </mxCell>
        <mxCell id="2Uuv6Jr3GKPPrzBkkDZs-127" value="O_Move" style="text;html=1;align=center;verticalAlign=middle;resizable=0;points=[];autosize=1;strokeColor=none;fillColor=none;fontSize=12;fontFamily=Helvetica;fontColor=default;" parent="ZAlOu0CJ_7-fTKXVSEOV-12" vertex="1">
          <mxGeometry x="275" y="20" width="70" height="30" as="geometry" />
        </mxCell>
        <mxCell id="2Uuv6Jr3GKPPrzBkkDZs-128" value="Player" style="text;html=1;align=center;verticalAlign=middle;resizable=0;points=[];autosize=1;strokeColor=none;fillColor=none;fontSize=12;fontFamily=Helvetica;fontColor=default;" parent="ZAlOu0CJ_7-fTKXVSEOV-12" vertex="1">
          <mxGeometry x="281.75" y="190.00000000000006" width="60" height="30" as="geometry" />
        </mxCell>
        <mxCell id="QJshhDIBLvKhUWag_ISZ-1" value="" style="group" parent="ZAlOu0CJ_7-fTKXVSEOV-12" vertex="1" connectable="0">
          <mxGeometry x="157" y="12.98000000000006" width="20" height="44.04" as="geometry" />
        </mxCell>
        <mxCell id="QJshhDIBLvKhUWag_ISZ-2" value="" style="rounded=0;whiteSpace=wrap;html=1;labelBackgroundColor=none;align=center;verticalAlign=middle;fontFamily=Helvetica;fontSize=12;fontColor=default;fillColor=none;gradientColor=none;" parent="QJshhDIBLvKhUWag_ISZ-1" vertex="1">
          <mxGeometry width="20" height="40.77777777777778" as="geometry" />
        </mxCell>
        <mxCell id="QJshhDIBLvKhUWag_ISZ-3" value="" style="triangle;whiteSpace=wrap;html=1;labelBackgroundColor=none;align=center;verticalAlign=middle;fontFamily=Helvetica;fontSize=12;fontColor=default;fillColor=none;gradientColor=none;" parent="QJshhDIBLvKhUWag_ISZ-1" vertex="1">
          <mxGeometry y="26.880711111111143" width="6.666666666666666" height="8.155555555555555" as="geometry" />
        </mxCell>
        <mxCell id="QJshhDIBLvKhUWag_ISZ-4" value="" style="ellipse;whiteSpace=wrap;html=1;aspect=fixed;labelBackgroundColor=none;align=center;verticalAlign=middle;fontFamily=Helvetica;fontSize=12;fontColor=default;fillColor=none;gradientColor=none;" parent="QJshhDIBLvKhUWag_ISZ-1" vertex="1">
          <mxGeometry x="8.666666666666666" y="40.77777777777778" width="2.6666666666666665" height="2.6666666666666665" as="geometry" />
        </mxCell>
        <mxCell id="QJshhDIBLvKhUWag_ISZ-8" style="edgeStyle=orthogonalEdgeStyle;rounded=0;orthogonalLoop=1;jettySize=auto;html=1;entryX=0;entryY=0.25;entryDx=0;entryDy=0;jumpStyle=arc;jumpSize=8;" parent="ZAlOu0CJ_7-fTKXVSEOV-12" source="QJshhDIBLvKhUWag_ISZ-5" target="2Uuv6Jr3GKPPrzBkkDZs-97" edge="1">
          <mxGeometry relative="1" as="geometry">
            <Array as="points">
              <mxPoint x="125" y="149.00000000000006" />
              <mxPoint x="124" y="149.00000000000006" />
              <mxPoint x="124" y="181.00000000000006" />
            </Array>
          </mxGeometry>
        </mxCell>
        <mxCell id="QJshhDIBLvKhUWag_ISZ-5" value="" style="shape=waypoint;sketch=0;fillStyle=solid;size=6;pointerEvents=1;points=[];fillColor=none;resizable=0;rotatable=0;perimeter=centerPerimeter;snapToPoint=1;" parent="ZAlOu0CJ_7-fTKXVSEOV-12" vertex="1">
          <mxGeometry x="114.5" y="105.00000000000006" width="20" height="20" as="geometry" />
        </mxCell>
        <mxCell id="QJshhDIBLvKhUWag_ISZ-10" value="" style="edgeStyle=orthogonalEdgeStyle;rounded=0;orthogonalLoop=1;jettySize=auto;html=1;exitX=0;exitY=0.5;exitDx=0;exitDy=0;entryDx=0;entryDy=0;entryPerimeter=0;endArrow=none;endFill=0;" parent="ZAlOu0CJ_7-fTKXVSEOV-12" source="2Uuv6Jr3GKPPrzBkkDZs-93" target="QJshhDIBLvKhUWag_ISZ-9" edge="1">
          <mxGeometry relative="1" as="geometry">
            <mxPoint x="2207" y="-149.99999999999994" as="sourcePoint" />
            <mxPoint x="2295" y="-144.99999999999994" as="targetPoint" />
            <Array as="points">
              <mxPoint x="54" y="110.00000000000006" />
              <mxPoint x="54" y="115.00000000000006" />
            </Array>
          </mxGeometry>
        </mxCell>
        <mxCell id="QJshhDIBLvKhUWag_ISZ-11" style="edgeStyle=orthogonalEdgeStyle;rounded=0;orthogonalLoop=1;jettySize=auto;html=1;endArrow=none;endFill=0;" parent="ZAlOu0CJ_7-fTKXVSEOV-12" source="QJshhDIBLvKhUWag_ISZ-9" target="QJshhDIBLvKhUWag_ISZ-5" edge="1">
          <mxGeometry relative="1" as="geometry" />
        </mxCell>
        <mxCell id="QJshhDIBLvKhUWag_ISZ-9" value="" style="shape=waypoint;sketch=0;fillStyle=solid;size=6;pointerEvents=1;points=[];fillColor=none;resizable=0;rotatable=0;perimeter=centerPerimeter;snapToPoint=1;" parent="ZAlOu0CJ_7-fTKXVSEOV-12" vertex="1">
          <mxGeometry x="91" y="105.00000000000006" width="20" height="20" as="geometry" />
        </mxCell>
        <mxCell id="2Uuv6Jr3GKPPrzBkkDZs-94" style="edgeStyle=orthogonalEdgeStyle;rounded=0;orthogonalLoop=1;jettySize=auto;html=1;fontFamily=Helvetica;fontSize=12;fontColor=default;entryX=0;entryY=0.75;entryDx=0;entryDy=0;" parent="ZAlOu0CJ_7-fTKXVSEOV-12" source="QJshhDIBLvKhUWag_ISZ-5" target="2Uuv6Jr3GKPPrzBkkDZs-95" edge="1">
          <mxGeometry relative="1" as="geometry">
            <mxPoint x="25" y="116" as="sourcePoint" />
            <Array as="points">
              <mxPoint x="147" y="116" />
            </Array>
          </mxGeometry>
        </mxCell>
        <mxCell id="QJshhDIBLvKhUWag_ISZ-14" value="&lt;font style=&quot;font-size: 9px;&quot;&gt;I_Reset&lt;/font&gt;" style="text;html=1;strokeColor=none;fillColor=none;align=center;verticalAlign=middle;whiteSpace=wrap;rounded=0;" parent="ZAlOu0CJ_7-fTKXVSEOV-12" vertex="1">
          <mxGeometry x="45" y="51.00000000000006" width="37" height="16" as="geometry" />
        </mxCell>
        <mxCell id="QJshhDIBLvKhUWag_ISZ-59" value="" style="edgeStyle=orthogonalEdgeStyle;rounded=0;orthogonalLoop=1;jettySize=auto;html=1;entryDx=0;entryDy=0;endArrow=none;endFill=0;jumpStyle=arc;jumpSize=12;" parent="ZAlOu0CJ_7-fTKXVSEOV-12" source="QJshhDIBLvKhUWag_ISZ-9" target="QJshhDIBLvKhUWag_ISZ-58" edge="1">
          <mxGeometry relative="1" as="geometry">
            <mxPoint x="101" y="115.00000000000006" as="sourcePoint" />
            <mxPoint x="157" y="23.000000000000057" as="targetPoint" />
            <Array as="points" />
          </mxGeometry>
        </mxCell>
        <mxCell id="QJshhDIBLvKhUWag_ISZ-60" style="edgeStyle=orthogonalEdgeStyle;rounded=0;orthogonalLoop=1;jettySize=auto;html=1;entryX=1;entryY=0.25;entryDx=0;entryDy=0;entryPerimeter=0;" parent="ZAlOu0CJ_7-fTKXVSEOV-12" source="ZAlOu0CJ_7-fTKXVSEOV-51" target="2Uuv6Jr3GKPPrzBkkDZs-93" edge="1">
          <mxGeometry relative="1" as="geometry">
            <mxPoint x="345" y="53.00000000000006" as="targetPoint" />
            <Array as="points">
              <mxPoint x="285" y="55" />
              <mxPoint x="345" y="55" />
            </Array>
          </mxGeometry>
        </mxCell>
        <mxCell id="QJshhDIBLvKhUWag_ISZ-58" value="" style="shape=waypoint;sketch=0;fillStyle=solid;size=6;pointerEvents=1;points=[];fillColor=none;resizable=0;rotatable=0;perimeter=centerPerimeter;snapToPoint=1;strokeColor=none;" parent="ZAlOu0CJ_7-fTKXVSEOV-12" vertex="1">
          <mxGeometry x="92" y="12.98000000000006" width="20" height="20" as="geometry" />
        </mxCell>
        <mxCell id="ZAlOu0CJ_7-fTKXVSEOV-51" value="" style="shape=waypoint;sketch=0;fillStyle=solid;size=6;pointerEvents=1;points=[];fillColor=none;resizable=0;rotatable=0;perimeter=centerPerimeter;snapToPoint=1;" parent="ZAlOu0CJ_7-fTKXVSEOV-12" vertex="1">
          <mxGeometry x="275" y="20.000000000000057" width="20" height="20" as="geometry" />
        </mxCell>
        <mxCell id="ZAlOu0CJ_7-fTKXVSEOV-52" value="" style="edgeStyle=orthogonalEdgeStyle;rounded=0;orthogonalLoop=1;jettySize=auto;html=1;entryDx=0;entryDy=0;entryPerimeter=0;endArrow=none;endFill=0;" parent="ZAlOu0CJ_7-fTKXVSEOV-12" source="QJshhDIBLvKhUWag_ISZ-58" target="ZAlOu0CJ_7-fTKXVSEOV-51" edge="1">
          <mxGeometry relative="1" as="geometry">
            <mxPoint x="2661" y="12.999999999999943" as="targetPoint" />
            <Array as="points">
              <mxPoint x="102" y="-20" />
              <mxPoint x="285" y="-20" />
            </Array>
            <mxPoint x="2418" y="2.999999999999943" as="sourcePoint" />
          </mxGeometry>
        </mxCell>
        <mxCell id="ZAlOu0CJ_7-fTKXVSEOV-56" value="&lt;font style=&quot;font-size: 6px;&quot;&gt;1&lt;/font&gt;" style="text;html=1;strokeColor=none;fillColor=none;align=center;verticalAlign=middle;whiteSpace=wrap;rounded=0;" parent="ZAlOu0CJ_7-fTKXVSEOV-12" vertex="1">
          <mxGeometry x="237" y="1" width="11" height="10" as="geometry" />
        </mxCell>
        <mxCell id="QJshhDIBLvKhUWag_ISZ-13" style="edgeStyle=orthogonalEdgeStyle;rounded=0;orthogonalLoop=1;jettySize=auto;html=1;exitX=0;exitY=0.33;exitDx=0;exitDy=0;exitPerimeter=0;entryX=0.5;entryY=1;entryDx=0;entryDy=0;jumpStyle=arc;jumpSize=9;" parent="ZAlOu0CJ_7-fTKXVSEOV-12" source="2Uuv6Jr3GKPPrzBkkDZs-93" target="QJshhDIBLvKhUWag_ISZ-4" edge="1">
          <mxGeometry relative="1" as="geometry">
            <Array as="points">
              <mxPoint x="84" y="73.00000000000006" />
              <mxPoint x="167" y="73.00000000000006" />
            </Array>
          </mxGeometry>
        </mxCell>
        <mxCell id="2Uuv6Jr3GKPPrzBkkDZs-168" value="&lt;font style=&quot;font-size: 9px;&quot;&gt;10&lt;/font&gt;" style="text;html=1;align=center;verticalAlign=middle;resizable=0;points=[];autosize=1;strokeColor=none;fillColor=none;fontSize=12;fontFamily=Helvetica;fontColor=default;" parent="1" vertex="1">
          <mxGeometry x="2317" y="405" width="30" height="30" as="geometry" />
        </mxCell>
        <mxCell id="QJshhDIBLvKhUWag_ISZ-15" value="" style="rounded=0;whiteSpace=wrap;html=1;labelBackgroundColor=none;align=center;verticalAlign=middle;fontFamily=Helvetica;fontSize=12;fontColor=default;fillColor=none;gradientColor=none;points=[[0,0,0,0,0],[0,0.17,0,0,0],[0,0.25,0,0,0],[0,0.33,0,0,0],[0,0.5,0,0,0],[0,0.67,0,0,0],[0,0.75,0,0,0],[0,0.83,0,0,0],[0,1,0,0,0],[0.25,0,0,0,0],[0.25,1,0,0,0],[0.5,0,0,0,0],[0.5,1,0,0,0],[0.75,0,0,0,0],[0.75,1,0,0,0],[1,0,0,0,0],[1,0.25,0,0,0],[1,0.5,0,0,0],[1,0.75,0,0,0],[1,1,0,0,0]];" parent="1" vertex="1">
          <mxGeometry x="2353" y="239.99999999999994" width="308" height="260" as="geometry" />
        </mxCell>
        <mxCell id="QJshhDIBLvKhUWag_ISZ-17" value="==" style="whiteSpace=wrap;html=1;aspect=fixed;labelBackgroundColor=none;" parent="1" vertex="1">
          <mxGeometry x="2463" y="372.99999999999994" width="30" height="30" as="geometry" />
        </mxCell>
        <mxCell id="QJshhDIBLvKhUWag_ISZ-19" value="NOR" style="whiteSpace=wrap;html=1;aspect=fixed;labelBackgroundColor=none;" parent="1" vertex="1">
          <mxGeometry x="2463" y="452.96" width="30" height="30" as="geometry" />
        </mxCell>
        <mxCell id="QJshhDIBLvKhUWag_ISZ-20" style="edgeStyle=orthogonalEdgeStyle;rounded=0;orthogonalLoop=1;jettySize=auto;html=1;fontFamily=Helvetica;fontSize=12;fontColor=default;entryX=0;entryY=0.25;entryDx=0;entryDy=0;" parent="1" target="QJshhDIBLvKhUWag_ISZ-22" edge="1">
          <mxGeometry relative="1" as="geometry">
            <mxPoint x="2341" y="420.99999999999994" as="sourcePoint" />
          </mxGeometry>
        </mxCell>
        <mxCell id="QJshhDIBLvKhUWag_ISZ-21" style="edgeStyle=orthogonalEdgeStyle;rounded=0;orthogonalLoop=1;jettySize=auto;html=1;fontFamily=Helvetica;fontSize=12;fontColor=default;entryX=0;entryY=0.75;entryDx=0;entryDy=0;" parent="1" target="QJshhDIBLvKhUWag_ISZ-22" edge="1">
          <mxGeometry relative="1" as="geometry">
            <mxPoint x="2341" y="435.99999999999994" as="sourcePoint" />
          </mxGeometry>
        </mxCell>
        <mxCell id="QJshhDIBLvKhUWag_ISZ-22" value="==" style="whiteSpace=wrap;html=1;aspect=fixed;labelBackgroundColor=none;" parent="1" vertex="1">
          <mxGeometry x="2463" y="412.99999999999994" width="30" height="30" as="geometry" />
        </mxCell>
        <mxCell id="QJshhDIBLvKhUWag_ISZ-23" style="edgeStyle=orthogonalEdgeStyle;rounded=0;orthogonalLoop=1;jettySize=auto;html=1;exitX=1;exitY=0.5;exitDx=0;exitDy=0;entryX=0;entryY=0.25;entryDx=0;entryDy=0;entryPerimeter=0;" parent="1" source="QJshhDIBLvKhUWag_ISZ-17" target="QJshhDIBLvKhUWag_ISZ-26" edge="1">
          <mxGeometry relative="1" as="geometry" />
        </mxCell>
        <mxCell id="QJshhDIBLvKhUWag_ISZ-24" style="edgeStyle=orthogonalEdgeStyle;rounded=0;orthogonalLoop=1;jettySize=auto;html=1;entryX=0;entryY=0.75;entryDx=0;entryDy=0;entryPerimeter=0;" parent="1" source="QJshhDIBLvKhUWag_ISZ-22" target="QJshhDIBLvKhUWag_ISZ-26" edge="1">
          <mxGeometry relative="1" as="geometry" />
        </mxCell>
        <mxCell id="QJshhDIBLvKhUWag_ISZ-25" value="" style="group" parent="1" vertex="1" connectable="0">
          <mxGeometry x="2532.5" y="395.99999999999994" width="22.5" height="23" as="geometry" />
        </mxCell>
        <mxCell id="QJshhDIBLvKhUWag_ISZ-26" value="" style="shape=or;whiteSpace=wrap;html=1;" parent="QJshhDIBLvKhUWag_ISZ-25" vertex="1">
          <mxGeometry width="17.5" height="23" as="geometry" />
        </mxCell>
        <mxCell id="QJshhDIBLvKhUWag_ISZ-27" value="" style="ellipse;whiteSpace=wrap;html=1;aspect=fixed;" parent="QJshhDIBLvKhUWag_ISZ-25" vertex="1">
          <mxGeometry x="17.5" y="9" width="5" height="5" as="geometry" />
        </mxCell>
        <mxCell id="QJshhDIBLvKhUWag_ISZ-28" value="" style="group" parent="1" vertex="1" connectable="0">
          <mxGeometry x="2539" y="458.97999999999996" width="16" height="17.960000000000036" as="geometry" />
        </mxCell>
        <mxCell id="QJshhDIBLvKhUWag_ISZ-29" value="" style="triangle;whiteSpace=wrap;html=1;" parent="QJshhDIBLvKhUWag_ISZ-28" vertex="1">
          <mxGeometry width="11" height="17.96" as="geometry" />
        </mxCell>
        <mxCell id="QJshhDIBLvKhUWag_ISZ-30" value="" style="ellipse;whiteSpace=wrap;html=1;aspect=fixed;" parent="QJshhDIBLvKhUWag_ISZ-28" vertex="1">
          <mxGeometry x="11" y="6.480000000000018" width="5" height="5" as="geometry" />
        </mxCell>
        <mxCell id="QJshhDIBLvKhUWag_ISZ-31" style="edgeStyle=orthogonalEdgeStyle;rounded=0;orthogonalLoop=1;jettySize=auto;html=1;exitX=1;exitY=0.5;exitDx=0;exitDy=0;exitPerimeter=0;entryX=1;entryY=0.5;entryDx=0;entryDy=0;fontFamily=Helvetica;fontSize=12;fontColor=default;" parent="1" source="QJshhDIBLvKhUWag_ISZ-32" target="QJshhDIBLvKhUWag_ISZ-15" edge="1">
          <mxGeometry relative="1" as="geometry" />
        </mxCell>
        <mxCell id="QJshhDIBLvKhUWag_ISZ-32" value="" style="shape=or;whiteSpace=wrap;html=1;" parent="1" vertex="1">
          <mxGeometry x="2597.75" y="429.96" width="17.5" height="23" as="geometry" />
        </mxCell>
        <mxCell id="QJshhDIBLvKhUWag_ISZ-33" style="edgeStyle=orthogonalEdgeStyle;rounded=0;orthogonalLoop=1;jettySize=auto;html=1;exitX=1;exitY=0.5;exitDx=0;exitDy=0;entryX=0;entryY=0.75;entryDx=0;entryDy=0;entryPerimeter=0;" parent="1" source="QJshhDIBLvKhUWag_ISZ-30" target="QJshhDIBLvKhUWag_ISZ-32" edge="1">
          <mxGeometry relative="1" as="geometry" />
        </mxCell>
        <mxCell id="QJshhDIBLvKhUWag_ISZ-34" style="edgeStyle=orthogonalEdgeStyle;rounded=0;orthogonalLoop=1;jettySize=auto;html=1;exitX=1;exitY=0.5;exitDx=0;exitDy=0;entryX=0;entryY=0.25;entryDx=0;entryDy=0;entryPerimeter=0;" parent="1" source="QJshhDIBLvKhUWag_ISZ-27" target="QJshhDIBLvKhUWag_ISZ-32" edge="1">
          <mxGeometry relative="1" as="geometry" />
        </mxCell>
        <mxCell id="QJshhDIBLvKhUWag_ISZ-35" style="edgeStyle=orthogonalEdgeStyle;rounded=0;orthogonalLoop=1;jettySize=auto;html=1;exitX=1;exitY=0.25;exitDx=0;exitDy=0;entryX=0;entryY=0.25;entryDx=0;entryDy=0;" parent="1" source="QJshhDIBLvKhUWag_ISZ-46" target="QJshhDIBLvKhUWag_ISZ-17" edge="1">
          <mxGeometry relative="1" as="geometry">
            <Array as="points">
              <mxPoint x="2506" y="303" />
              <mxPoint x="2506" y="363" />
              <mxPoint x="2443" y="363" />
              <mxPoint x="2443" y="381" />
            </Array>
            <mxPoint x="2478.0049783549784" y="330" as="sourcePoint" />
          </mxGeometry>
        </mxCell>
        <mxCell id="QJshhDIBLvKhUWag_ISZ-37" value="&lt;font style=&quot;font-size: 9px;&quot;&gt;I_LastWinner&lt;/font&gt;" style="text;html=1;align=center;verticalAlign=middle;resizable=1;points=[];autosize=1;strokeColor=none;fillColor=none;labelBackgroundColor=none;" parent="1" vertex="1">
          <mxGeometry x="2361" y="413.23999999999995" width="80" height="30" as="geometry" />
        </mxCell>
        <mxCell id="QJshhDIBLvKhUWag_ISZ-38" value="&lt;font style=&quot;font-size: 9px;&quot;&gt;I_Player&lt;/font&gt;" style="text;html=1;align=center;verticalAlign=middle;resizable=1;points=[];autosize=1;strokeColor=none;fillColor=none;movable=1;rotatable=1;deletable=1;editable=1;locked=0;connectable=1;labelBackgroundColor=none;" parent="1" vertex="1">
          <mxGeometry x="2367" y="398.99999999999994" width="60" height="30" as="geometry" />
        </mxCell>
        <mxCell id="QJshhDIBLvKhUWag_ISZ-39" value="&lt;font style=&quot;font-size: 9px;&quot;&gt;I_Move&lt;/font&gt;" style="text;html=1;align=center;verticalAlign=middle;resizable=1;points=[];autosize=1;strokeColor=none;fillColor=none;fontSize=12;fontFamily=Helvetica;fontColor=default;" parent="1" vertex="1">
          <mxGeometry x="2361" y="363.03999999999996" width="50" height="30" as="geometry" />
        </mxCell>
        <mxCell id="QJshhDIBLvKhUWag_ISZ-40" value="" style="rounded=0;whiteSpace=wrap;html=1;labelBackgroundColor=none;align=center;verticalAlign=middle;fontFamily=Helvetica;fontSize=12;fontColor=default;fillColor=none;gradientColor=none;" parent="1" vertex="1">
          <mxGeometry x="2341.25" y="387.0399999999999" height="9.96" as="geometry" />
        </mxCell>
        <mxCell id="QJshhDIBLvKhUWag_ISZ-41" value="O_IsMoveValid" style="text;html=1;align=center;verticalAlign=middle;resizable=0;points=[];autosize=1;strokeColor=none;fillColor=none;fontSize=12;fontFamily=Helvetica;fontColor=default;" parent="1" vertex="1">
          <mxGeometry x="2555" y="357.03999999999996" width="100" height="30" as="geometry" />
        </mxCell>
        <mxCell id="QJshhDIBLvKhUWag_ISZ-42" style="edgeStyle=orthogonalEdgeStyle;rounded=0;orthogonalLoop=1;jettySize=auto;html=1;exitX=1;exitY=0.5;exitDx=0;exitDy=0;entryX=0;entryY=0.5;entryDx=0;entryDy=0;" parent="1" source="QJshhDIBLvKhUWag_ISZ-19" target="QJshhDIBLvKhUWag_ISZ-29" edge="1">
          <mxGeometry relative="1" as="geometry" />
        </mxCell>
        <mxCell id="QJshhDIBLvKhUWag_ISZ-43" value="O_Move" style="text;html=1;align=center;verticalAlign=middle;resizable=0;points=[];autosize=1;strokeColor=none;fillColor=none;fontSize=12;fontFamily=Helvetica;fontColor=default;" parent="1" vertex="1">
          <mxGeometry x="2585" y="307.0199999999999" width="70" height="30" as="geometry" />
        </mxCell>
        <mxCell id="QJshhDIBLvKhUWag_ISZ-44" value="Player" style="text;html=1;align=center;verticalAlign=middle;resizable=0;points=[];autosize=1;strokeColor=none;fillColor=none;fontSize=12;fontFamily=Helvetica;fontColor=default;" parent="1" vertex="1">
          <mxGeometry x="2597.75" y="470" width="60" height="30" as="geometry" />
        </mxCell>
        <mxCell id="QJshhDIBLvKhUWag_ISZ-45" value="" style="group" parent="1" vertex="1" connectable="0">
          <mxGeometry x="2473" y="292.98" width="20" height="44.04" as="geometry" />
        </mxCell>
        <mxCell id="QJshhDIBLvKhUWag_ISZ-46" value="" style="rounded=0;whiteSpace=wrap;html=1;labelBackgroundColor=none;align=center;verticalAlign=middle;fontFamily=Helvetica;fontSize=12;fontColor=default;fillColor=none;gradientColor=none;" parent="QJshhDIBLvKhUWag_ISZ-45" vertex="1">
          <mxGeometry width="20" height="40.77777777777778" as="geometry" />
        </mxCell>
        <mxCell id="QJshhDIBLvKhUWag_ISZ-47" value="" style="triangle;whiteSpace=wrap;html=1;labelBackgroundColor=none;align=center;verticalAlign=middle;fontFamily=Helvetica;fontSize=12;fontColor=default;fillColor=none;gradientColor=none;" parent="QJshhDIBLvKhUWag_ISZ-45" vertex="1">
          <mxGeometry y="26.880711111111143" width="6.666666666666666" height="8.155555555555555" as="geometry" />
        </mxCell>
        <mxCell id="QJshhDIBLvKhUWag_ISZ-48" value="" style="ellipse;whiteSpace=wrap;html=1;aspect=fixed;labelBackgroundColor=none;align=center;verticalAlign=middle;fontFamily=Helvetica;fontSize=12;fontColor=default;fillColor=none;gradientColor=none;" parent="QJshhDIBLvKhUWag_ISZ-45" vertex="1">
          <mxGeometry x="8.666666666666666" y="40.77777777777778" width="2.6666666666666665" height="2.6666666666666665" as="geometry" />
        </mxCell>
        <mxCell id="QJshhDIBLvKhUWag_ISZ-49" style="edgeStyle=orthogonalEdgeStyle;rounded=0;orthogonalLoop=1;jettySize=auto;html=1;entryX=0;entryY=0.25;entryDx=0;entryDy=0;jumpStyle=arc;jumpSize=8;" parent="1" source="QJshhDIBLvKhUWag_ISZ-50" target="QJshhDIBLvKhUWag_ISZ-19" edge="1">
          <mxGeometry relative="1" as="geometry">
            <Array as="points">
              <mxPoint x="2441" y="429" />
              <mxPoint x="2440" y="429" />
              <mxPoint x="2440" y="461" />
            </Array>
          </mxGeometry>
        </mxCell>
        <mxCell id="QJshhDIBLvKhUWag_ISZ-50" value="" style="shape=waypoint;sketch=0;fillStyle=solid;size=6;pointerEvents=1;points=[];fillColor=none;resizable=0;rotatable=0;perimeter=centerPerimeter;snapToPoint=1;" parent="1" vertex="1">
          <mxGeometry x="2430.5" y="385" width="20" height="20" as="geometry" />
        </mxCell>
        <mxCell id="QJshhDIBLvKhUWag_ISZ-51" value="" style="edgeStyle=orthogonalEdgeStyle;rounded=0;orthogonalLoop=1;jettySize=auto;html=1;exitX=0;exitY=0.5;exitDx=0;exitDy=0;entryDx=0;entryDy=0;entryPerimeter=0;endArrow=none;endFill=0;" parent="1" source="QJshhDIBLvKhUWag_ISZ-15" target="QJshhDIBLvKhUWag_ISZ-54" edge="1">
          <mxGeometry relative="1" as="geometry">
            <mxPoint x="4523" y="130" as="sourcePoint" />
            <mxPoint x="4611" y="135" as="targetPoint" />
            <Array as="points">
              <mxPoint x="2370" y="390" />
              <mxPoint x="2370" y="395" />
            </Array>
          </mxGeometry>
        </mxCell>
        <mxCell id="QJshhDIBLvKhUWag_ISZ-52" style="edgeStyle=orthogonalEdgeStyle;rounded=0;orthogonalLoop=1;jettySize=auto;html=1;endArrow=none;endFill=0;" parent="1" source="QJshhDIBLvKhUWag_ISZ-54" target="QJshhDIBLvKhUWag_ISZ-50" edge="1">
          <mxGeometry relative="1" as="geometry" />
        </mxCell>
        <mxCell id="QJshhDIBLvKhUWag_ISZ-54" value="" style="shape=waypoint;sketch=0;fillStyle=solid;size=6;pointerEvents=1;points=[];fillColor=none;resizable=0;rotatable=0;perimeter=centerPerimeter;snapToPoint=1;" parent="1" vertex="1">
          <mxGeometry x="2407" y="385" width="20" height="20" as="geometry" />
        </mxCell>
        <mxCell id="QJshhDIBLvKhUWag_ISZ-16" style="edgeStyle=orthogonalEdgeStyle;rounded=0;orthogonalLoop=1;jettySize=auto;html=1;fontFamily=Helvetica;fontSize=12;fontColor=default;entryX=0;entryY=0.75;entryDx=0;entryDy=0;" parent="1" source="QJshhDIBLvKhUWag_ISZ-50" target="QJshhDIBLvKhUWag_ISZ-17" edge="1">
          <mxGeometry relative="1" as="geometry">
            <mxPoint x="2341" y="395.99999999999994" as="sourcePoint" />
            <Array as="points">
              <mxPoint x="2463" y="395.99999999999994" />
            </Array>
          </mxGeometry>
        </mxCell>
        <mxCell id="QJshhDIBLvKhUWag_ISZ-56" value="&lt;font style=&quot;font-size: 9px;&quot;&gt;I_Reset&lt;/font&gt;" style="text;html=1;strokeColor=none;fillColor=none;align=center;verticalAlign=middle;whiteSpace=wrap;rounded=0;" parent="1" vertex="1">
          <mxGeometry x="2361" y="331" width="37" height="16" as="geometry" />
        </mxCell>
        <mxCell id="QJshhDIBLvKhUWag_ISZ-61" value="" style="shape=waypoint;sketch=0;fillStyle=solid;size=6;pointerEvents=1;points=[];fillColor=none;resizable=0;rotatable=0;perimeter=centerPerimeter;snapToPoint=1;strokeColor=none;" parent="1" vertex="1">
          <mxGeometry x="2407" y="292.98" width="20" height="20" as="geometry" />
        </mxCell>
        <mxCell id="QJshhDIBLvKhUWag_ISZ-62" value="" style="edgeStyle=orthogonalEdgeStyle;rounded=0;orthogonalLoop=1;jettySize=auto;html=1;entryDx=0;entryDy=0;endArrow=none;endFill=0;" parent="1" source="QJshhDIBLvKhUWag_ISZ-54" target="QJshhDIBLvKhUWag_ISZ-61" edge="1">
          <mxGeometry relative="1" as="geometry">
            <mxPoint x="4758" y="614.9999999999999" as="sourcePoint" />
            <mxPoint x="4814" y="522.9999999999999" as="targetPoint" />
            <Array as="points">
              <mxPoint x="2417" y="302.99999999999994" />
            </Array>
          </mxGeometry>
        </mxCell>
        <mxCell id="QJshhDIBLvKhUWag_ISZ-55" style="edgeStyle=orthogonalEdgeStyle;rounded=0;orthogonalLoop=1;jettySize=auto;html=1;exitX=0;exitY=0.33;exitDx=0;exitDy=0;exitPerimeter=0;entryX=0.5;entryY=1;entryDx=0;entryDy=0;jumpStyle=arc;jumpSize=9;" parent="1" source="QJshhDIBLvKhUWag_ISZ-15" target="QJshhDIBLvKhUWag_ISZ-48" edge="1">
          <mxGeometry relative="1" as="geometry">
            <Array as="points">
              <mxPoint x="2400" y="353" />
              <mxPoint x="2483" y="353" />
            </Array>
          </mxGeometry>
        </mxCell>
        <mxCell id="QJshhDIBLvKhUWag_ISZ-63" style="edgeStyle=orthogonalEdgeStyle;rounded=0;orthogonalLoop=1;jettySize=auto;html=1;entryX=1;entryY=0.25;entryDx=0;entryDy=0;entryPerimeter=0;" parent="1" source="ZAlOu0CJ_7-fTKXVSEOV-32" target="QJshhDIBLvKhUWag_ISZ-15" edge="1">
          <mxGeometry relative="1" as="geometry">
            <Array as="points">
              <mxPoint x="2580" y="335" />
              <mxPoint x="2661" y="335" />
            </Array>
          </mxGeometry>
        </mxCell>
        <mxCell id="ZAlOu0CJ_7-fTKXVSEOV-9" value="&lt;font style=&quot;font-size: 9px;&quot;&gt;I_Record&lt;/font&gt;" style="text;html=1;align=center;verticalAlign=middle;resizable=1;points=[];autosize=1;strokeColor=none;fillColor=none;" parent="1" vertex="1">
          <mxGeometry x="2350.5" y="251.51999999999995" width="60" height="30" as="geometry" />
        </mxCell>
        <mxCell id="ZAlOu0CJ_7-fTKXVSEOV-15" style="edgeStyle=orthogonalEdgeStyle;rounded=0;orthogonalLoop=1;jettySize=auto;html=1;exitX=1;exitY=0.25;exitDx=0;exitDy=0;entryX=1;entryY=0.5;entryDx=0;entryDy=0;entryPerimeter=0;" parent="1" source="QJshhDIBLvKhUWag_ISZ-46" target="ZAlOu0CJ_7-fTKXVSEOV-28" edge="1">
          <mxGeometry relative="1" as="geometry">
            <mxPoint x="2530" y="290" as="targetPoint" />
            <Array as="points">
              <mxPoint x="2513" y="303" />
              <mxPoint x="2533" y="303" />
            </Array>
          </mxGeometry>
        </mxCell>
        <mxCell id="ZAlOu0CJ_7-fTKXVSEOV-34" value="" style="edgeStyle=orthogonalEdgeStyle;rounded=0;orthogonalLoop=1;jettySize=auto;html=1;entryDx=0;entryDy=0;entryPerimeter=0;endArrow=none;endFill=0;" parent="1" source="QJshhDIBLvKhUWag_ISZ-61" target="ZAlOu0CJ_7-fTKXVSEOV-32" edge="1">
          <mxGeometry relative="1" as="geometry">
            <Array as="points">
              <mxPoint x="2417" y="250" />
              <mxPoint x="2580" y="250" />
            </Array>
            <mxPoint x="2417" y="303" as="sourcePoint" />
            <mxPoint x="2661" y="305" as="targetPoint" />
          </mxGeometry>
        </mxCell>
        <mxCell id="ZAlOu0CJ_7-fTKXVSEOV-32" value="" style="shape=waypoint;sketch=0;fillStyle=solid;size=6;pointerEvents=1;points=[];fillColor=none;resizable=0;rotatable=0;perimeter=centerPerimeter;snapToPoint=1;" parent="1" vertex="1">
          <mxGeometry x="2570" y="291.98" width="20" height="20" as="geometry" />
        </mxCell>
        <mxCell id="ZAlOu0CJ_7-fTKXVSEOV-35" style="edgeStyle=orthogonalEdgeStyle;rounded=0;orthogonalLoop=1;jettySize=auto;html=1;entryX=1;entryY=0.5;entryDx=0;entryDy=0;entryPerimeter=0;" parent="1" source="ZAlOu0CJ_7-fTKXVSEOV-32" target="ZAlOu0CJ_7-fTKXVSEOV-29" edge="1">
          <mxGeometry relative="1" as="geometry" />
        </mxCell>
        <mxCell id="ZAlOu0CJ_7-fTKXVSEOV-38" style="edgeStyle=orthogonalEdgeStyle;rounded=0;orthogonalLoop=1;jettySize=auto;html=1;exitX=1;exitY=0.5;exitDx=0;exitDy=0;exitPerimeter=0;entryX=0;entryY=0.25;entryDx=0;entryDy=0;" parent="1" source="ZAlOu0CJ_7-fTKXVSEOV-36" target="QJshhDIBLvKhUWag_ISZ-46" edge="1">
          <mxGeometry relative="1" as="geometry">
            <Array as="points">
              <mxPoint x="2540" y="260" />
              <mxPoint x="2453" y="260" />
              <mxPoint x="2453" y="303" />
            </Array>
          </mxGeometry>
        </mxCell>
        <mxCell id="ZAlOu0CJ_7-fTKXVSEOV-14" style="edgeStyle=elbowEdgeStyle;rounded=0;orthogonalLoop=1;jettySize=auto;html=1;exitX=0;exitY=0.17;exitDx=0;exitDy=0;exitPerimeter=0;entryX=1;entryY=0.5;entryDx=0;entryDy=0;entryPerimeter=0;jumpStyle=arc;jumpSize=10;" parent="1" source="QJshhDIBLvKhUWag_ISZ-15" target="ZAlOu0CJ_7-fTKXVSEOV-30" edge="1">
          <mxGeometry relative="1" as="geometry">
            <mxPoint x="2511" y="285" as="targetPoint" />
          </mxGeometry>
        </mxCell>
        <mxCell id="ZAlOu0CJ_7-fTKXVSEOV-37" value="" style="group" parent="1" vertex="1" connectable="0">
          <mxGeometry x="2520" y="260" width="62.5" height="40" as="geometry" />
        </mxCell>
        <mxCell id="ZAlOu0CJ_7-fTKXVSEOV-31" value="" style="group" parent="ZAlOu0CJ_7-fTKXVSEOV-37" vertex="1" connectable="0">
          <mxGeometry width="62.5" height="40" as="geometry" />
        </mxCell>
        <mxCell id="ZAlOu0CJ_7-fTKXVSEOV-20" value="" style="group" parent="ZAlOu0CJ_7-fTKXVSEOV-31" vertex="1" connectable="0">
          <mxGeometry width="62.5" height="40" as="geometry" />
        </mxCell>
        <mxCell id="ZAlOu0CJ_7-fTKXVSEOV-16" value="" style="verticalLabelPosition=bottom;verticalAlign=top;html=1;shape=mxgraph.basic.polygon;polyCoords=[[0.2,0.36],[0.8,0.36],[0.8,0.36],[1,1],[1,1],[0,1],[0,1],[0.2,0.36]];polyline=0;points=[];perimeter=rectanglePerimeter;recursiveResize=1;autosize=0;resizable=1;" parent="ZAlOu0CJ_7-fTKXVSEOV-20" vertex="1">
          <mxGeometry x="2.740740740740741" width="34.25925925925927" height="27.194035087719293" as="geometry" />
        </mxCell>
        <mxCell id="ZAlOu0CJ_7-fTKXVSEOV-28" value="" style="line;strokeWidth=1;direction=south;html=1;points=[[1,0.5,0,0,0]];" parent="ZAlOu0CJ_7-fTKXVSEOV-20" vertex="1">
          <mxGeometry x="10" y="26.97999999999999" width="5" height="5" as="geometry" />
        </mxCell>
        <mxCell id="ZAlOu0CJ_7-fTKXVSEOV-39" value="&lt;font style=&quot;font-size: 6px;&quot;&gt;1&lt;/font&gt;" style="text;strokeColor=none;fillColor=none;html=1;fontSize=24;fontStyle=1;verticalAlign=middle;align=center;" parent="ZAlOu0CJ_7-fTKXVSEOV-20" vertex="1">
          <mxGeometry x="17" y="12" width="17.5" height="10" as="geometry" />
        </mxCell>
        <mxCell id="ZAlOu0CJ_7-fTKXVSEOV-29" value="" style="line;strokeWidth=1;direction=south;html=1;points=[[1,0.5,0,0,0]];" parent="ZAlOu0CJ_7-fTKXVSEOV-31" vertex="1">
          <mxGeometry x="25" y="26.97999999999999" width="5" height="5" as="geometry" />
        </mxCell>
        <mxCell id="ZAlOu0CJ_7-fTKXVSEOV-30" value="" style="line;strokeWidth=1;direction=west;html=1;points=[[1,0.5,0,0,0]];" parent="ZAlOu0CJ_7-fTKXVSEOV-31" vertex="1">
          <mxGeometry x="1" y="15.97999999999999" width="5" height="5" as="geometry" />
        </mxCell>
        <mxCell id="ZAlOu0CJ_7-fTKXVSEOV-36" value="" style="line;strokeWidth=1;direction=north;html=1;points=[[1,0.5,0,0,0]];" parent="ZAlOu0CJ_7-fTKXVSEOV-37" vertex="1">
          <mxGeometry x="17" y="5" width="5" height="5" as="geometry" />
        </mxCell>
        <mxCell id="ZAlOu0CJ_7-fTKXVSEOV-40" value="&lt;font style=&quot;font-size: 6px;&quot;&gt;0&lt;/font&gt;" style="text;strokeColor=none;fillColor=none;html=1;fontSize=24;fontStyle=1;verticalAlign=middle;align=center;" parent="1" vertex="1">
          <mxGeometry x="2523" y="272" width="17.5" height="10" as="geometry" />
        </mxCell>
        <mxCell id="ZAlOu0CJ_7-fTKXVSEOV-42" value="" style="group;fillColor=none;" parent="1" vertex="1" connectable="0">
          <mxGeometry x="2532" y="-34" width="37" height="34" as="geometry" />
        </mxCell>
        <mxCell id="ZAlOu0CJ_7-fTKXVSEOV-43" value="" style="group" parent="ZAlOu0CJ_7-fTKXVSEOV-42" vertex="1" connectable="0">
          <mxGeometry width="37" height="34" as="geometry" />
        </mxCell>
        <mxCell id="ZAlOu0CJ_7-fTKXVSEOV-44" value="" style="group" parent="ZAlOu0CJ_7-fTKXVSEOV-43" vertex="1" connectable="0">
          <mxGeometry width="37" height="34" as="geometry" />
        </mxCell>
        <mxCell id="ZAlOu0CJ_7-fTKXVSEOV-45" value="" style="verticalLabelPosition=bottom;verticalAlign=top;html=1;shape=mxgraph.basic.polygon;polyCoords=[[0.2,0.36],[0.8,0.36],[0.8,0.36],[1,1],[1,1],[0,1],[0,1],[0.2,0.36]];polyline=0;points=[];perimeter=rectanglePerimeter;recursiveResize=1;autosize=0;resizable=1;fillColor=none;" parent="ZAlOu0CJ_7-fTKXVSEOV-44" vertex="1">
          <mxGeometry x="2.740740740740741" width="34.25925925925927" height="27.194035087719293" as="geometry" />
        </mxCell>
        <mxCell id="ZAlOu0CJ_7-fTKXVSEOV-46" value="" style="line;strokeWidth=1;direction=south;html=1;points=[[1,0.5,0,0,0]];" parent="ZAlOu0CJ_7-fTKXVSEOV-44" vertex="1">
          <mxGeometry x="10" y="26.97999999999999" width="5" height="5" as="geometry" />
        </mxCell>
        <mxCell id="ZAlOu0CJ_7-fTKXVSEOV-47" value="" style="line;strokeWidth=1;direction=south;html=1;points=[[1,0.5,0,0,0]];" parent="ZAlOu0CJ_7-fTKXVSEOV-43" vertex="1">
          <mxGeometry x="25" y="26.97999999999999" width="5" height="5" as="geometry" />
        </mxCell>
        <mxCell id="ZAlOu0CJ_7-fTKXVSEOV-48" value="" style="line;strokeWidth=1;direction=west;html=1;points=[[1,0.5,0,0,0]];" parent="ZAlOu0CJ_7-fTKXVSEOV-43" vertex="1">
          <mxGeometry x="1" y="15.97999999999999" width="5" height="5" as="geometry" />
        </mxCell>
        <mxCell id="ZAlOu0CJ_7-fTKXVSEOV-49" value="" style="line;strokeWidth=1;direction=north;html=1;points=[[1,0.5,0,0,0]];" parent="ZAlOu0CJ_7-fTKXVSEOV-42" vertex="1">
          <mxGeometry x="17" y="5" width="5" height="5" as="geometry" />
        </mxCell>
        <mxCell id="ZAlOu0CJ_7-fTKXVSEOV-10" value="I_Record" style="text;html=1;align=center;verticalAlign=middle;resizable=1;points=[];autosize=1;strokeColor=none;fillColor=none;" parent="1" vertex="1">
          <mxGeometry x="2357.5" y="-42.98000000000006" width="53.5" height="22.98" as="geometry" />
        </mxCell>
        <mxCell id="ZAlOu0CJ_7-fTKXVSEOV-53" style="edgeStyle=orthogonalEdgeStyle;rounded=0;orthogonalLoop=1;jettySize=auto;html=1;exitX=1;exitY=0.5;exitDx=0;exitDy=0;exitPerimeter=0;entryX=0;entryY=0.25;entryDx=0;entryDy=0;" parent="1" source="ZAlOu0CJ_7-fTKXVSEOV-49" target="QJshhDIBLvKhUWag_ISZ-2" edge="1">
          <mxGeometry relative="1" as="geometry">
            <Array as="points">
              <mxPoint x="2552" y="-30" />
              <mxPoint x="2453" y="-30" />
              <mxPoint x="2453" y="3" />
            </Array>
          </mxGeometry>
        </mxCell>
        <mxCell id="ZAlOu0CJ_7-fTKXVSEOV-54" style="edgeStyle=orthogonalEdgeStyle;rounded=0;orthogonalLoop=1;jettySize=auto;html=1;exitX=1;exitY=0.25;exitDx=0;exitDy=0;entryX=1;entryY=0.5;entryDx=0;entryDy=0;entryPerimeter=0;" parent="1" source="QJshhDIBLvKhUWag_ISZ-2" target="ZAlOu0CJ_7-fTKXVSEOV-46" edge="1">
          <mxGeometry relative="1" as="geometry">
            <Array as="points">
              <mxPoint x="2518" y="3" />
              <mxPoint x="2545" y="3" />
            </Array>
          </mxGeometry>
        </mxCell>
        <mxCell id="ZAlOu0CJ_7-fTKXVSEOV-55" style="edgeStyle=orthogonalEdgeStyle;rounded=0;orthogonalLoop=1;jettySize=auto;html=1;entryX=1;entryY=0.5;entryDx=0;entryDy=0;entryPerimeter=0;exitX=0.598;exitY=1.038;exitDx=0;exitDy=0;exitPerimeter=0;" parent="1" source="ZAlOu0CJ_7-fTKXVSEOV-51" target="ZAlOu0CJ_7-fTKXVSEOV-47" edge="1">
          <mxGeometry relative="1" as="geometry">
            <Array as="points">
              <mxPoint x="2571" y="10" />
              <mxPoint x="2571" y="10" />
              <mxPoint x="2560" y="10" />
            </Array>
          </mxGeometry>
        </mxCell>
        <mxCell id="ZAlOu0CJ_7-fTKXVSEOV-57" value="&lt;font style=&quot;font-size: 6px;&quot;&gt;0&lt;/font&gt;" style="text;html=1;strokeColor=none;fillColor=none;align=center;verticalAlign=middle;whiteSpace=wrap;rounded=0;" parent="1" vertex="1">
          <mxGeometry x="2540" y="-19.000000000000057" width="11" height="10" as="geometry" />
        </mxCell>
        <mxCell id="ZAlOu0CJ_7-fTKXVSEOV-50" style="edgeStyle=elbowEdgeStyle;rounded=0;orthogonalLoop=1;jettySize=auto;html=1;exitX=0;exitY=0.17;exitDx=0;exitDy=0;exitPerimeter=0;entryX=1;entryY=0.5;entryDx=0;entryDy=0;entryPerimeter=0;jumpStyle=arc;jumpSize=11;" parent="1" source="2Uuv6Jr3GKPPrzBkkDZs-93" target="ZAlOu0CJ_7-fTKXVSEOV-48" edge="1">
          <mxGeometry relative="1" as="geometry">
            <Array as="points">
              <mxPoint x="2380" y="-15" />
            </Array>
          </mxGeometry>
        </mxCell>
        <mxCell id="ZAlOu0CJ_7-fTKXVSEOV-59" value="" style="edgeStyle=orthogonalEdgeStyle;shape=connector;rounded=0;jumpStyle=arc;jumpSize=16;orthogonalLoop=1;jettySize=auto;html=1;exitX=1;exitY=0.5;exitDx=0;exitDy=0;exitPerimeter=0;entryDx=10;entryDy=0;entryPerimeter=0;labelBackgroundColor=default;strokeColor=default;align=center;verticalAlign=middle;fontFamily=Helvetica;fontSize=11;fontColor=default;endArrow=none;endFill=0;" parent="1" source="2Uuv6Jr3GKPPrzBkkDZs-156" target="ZAlOu0CJ_7-fTKXVSEOV-58" edge="1">
          <mxGeometry relative="1" as="geometry">
            <mxPoint x="2840" y="138" as="sourcePoint" />
            <mxPoint x="3035" y="-315" as="targetPoint" />
          </mxGeometry>
        </mxCell>
        <mxCell id="ZAlOu0CJ_7-fTKXVSEOV-58" value="" style="shape=waypoint;sketch=0;fillStyle=solid;size=6;pointerEvents=1;points=[];fillColor=none;resizable=0;rotatable=0;perimeter=centerPerimeter;snapToPoint=1;" parent="1" vertex="1">
          <mxGeometry x="2930" y="127.5" width="20" height="20" as="geometry" />
        </mxCell>
        <mxCell id="ZAlOu0CJ_7-fTKXVSEOV-62" value="O_AreMovesValid" style="text;html=1;align=center;verticalAlign=middle;resizable=0;points=[];autosize=1;strokeColor=none;fillColor=none;fontSize=12;fontFamily=Helvetica;fontColor=default;" parent="1" vertex="1">
          <mxGeometry x="3392" y="130" width="120" height="30" as="geometry" />
        </mxCell>
        <mxCell id="mE6gi2bYA7gFPaVlOnJq-2" value="" style="edgeStyle=orthogonalEdgeStyle;rounded=0;orthogonalLoop=1;jettySize=auto;html=1;entryDx=0;entryDy=0;jumpStyle=arc;jumpSize=16;endArrow=none;endFill=0;" parent="1" source="Li7N5Yae0CZkDWWDmwoK-30" target="mE6gi2bYA7gFPaVlOnJq-1" edge="1">
          <mxGeometry relative="1" as="geometry">
            <mxPoint x="2630" y="758" as="sourcePoint" />
            <mxPoint x="3270" y="803" as="targetPoint" />
          </mxGeometry>
        </mxCell>
        <mxCell id="mE6gi2bYA7gFPaVlOnJq-3" style="edgeStyle=orthogonalEdgeStyle;rounded=0;orthogonalLoop=1;jettySize=auto;html=1;entryX=1;entryY=0.5;entryDx=0;entryDy=0;entryPerimeter=0;" parent="1" source="mE6gi2bYA7gFPaVlOnJq-1" target="mE6gi2bYA7gFPaVlOnJq-10" edge="1">
          <mxGeometry relative="1" as="geometry">
            <mxPoint x="2930" y="310" as="targetPoint" />
            <Array as="points">
              <mxPoint x="2930" y="200" />
              <mxPoint x="3003" y="200" />
            </Array>
          </mxGeometry>
        </mxCell>
        <mxCell id="mE6gi2bYA7gFPaVlOnJq-1" value="" style="shape=waypoint;sketch=0;fillStyle=solid;size=6;pointerEvents=1;points=[];fillColor=none;resizable=0;rotatable=0;perimeter=centerPerimeter;snapToPoint=1;" parent="1" vertex="1">
          <mxGeometry x="2920" y="750" width="20" height="20" as="geometry" />
        </mxCell>
        <mxCell id="mE6gi2bYA7gFPaVlOnJq-16" value="" style="group" parent="1" vertex="1" connectable="0">
          <mxGeometry x="2987.0200000000004" y="125.00000000000006" width="32.97999999999956" height="40" as="geometry" />
        </mxCell>
        <mxCell id="mE6gi2bYA7gFPaVlOnJq-13" value="" style="group" parent="mE6gi2bYA7gFPaVlOnJq-16" vertex="1" connectable="0">
          <mxGeometry width="32.97999999999956" height="40" as="geometry" />
        </mxCell>
        <mxCell id="mE6gi2bYA7gFPaVlOnJq-4" value="" style="group;direction=east;rotation=90;flipV=1;flipH=0;" parent="mE6gi2bYA7gFPaVlOnJq-13" vertex="1" connectable="0">
          <mxGeometry x="-3.5100000000002183" y="3.509999999999991" width="40" height="32.98" as="geometry" />
        </mxCell>
        <mxCell id="mE6gi2bYA7gFPaVlOnJq-5" value="" style="group;rotation=90;" parent="mE6gi2bYA7gFPaVlOnJq-4" vertex="1" connectable="0">
          <mxGeometry x="1.0810810810810811" y="-0.9999999999999993" width="40" height="32.97999999999997" as="geometry" />
        </mxCell>
        <mxCell id="mE6gi2bYA7gFPaVlOnJq-6" value="" style="group;rotation=90;" parent="mE6gi2bYA7gFPaVlOnJq-5" vertex="1" connectable="0">
          <mxGeometry width="40" height="32.979999999999976" as="geometry" />
        </mxCell>
        <mxCell id="mE6gi2bYA7gFPaVlOnJq-7" value="" style="verticalLabelPosition=bottom;verticalAlign=top;html=1;shape=mxgraph.basic.polygon;polyCoords=[[0.2,0.36],[0.8,0.36],[0.8,0.36],[1,1],[1,1],[0,1],[0,1],[0.2,0.36]];polyline=0;points=[];perimeter=rectanglePerimeter;recursiveResize=1;autosize=0;resizable=1;rotation=90;" parent="mE6gi2bYA7gFPaVlOnJq-6" vertex="1">
          <mxGeometry x="4.324324324324325" y="3.9999999999999973" width="37.037037037037045" height="27.194035087719275" as="geometry" />
        </mxCell>
        <mxCell id="mE6gi2bYA7gFPaVlOnJq-8" value="" style="line;strokeWidth=1;direction=south;html=1;points=[[1,0.5,0,0,0]];rotation=90;" parent="mE6gi2bYA7gFPaVlOnJq-6" vertex="1">
          <mxGeometry x="3.2432432432432434" y="7.999999999999995" width="5.405405405405405" height="4.9999999999999964" as="geometry" />
        </mxCell>
        <mxCell id="mE6gi2bYA7gFPaVlOnJq-9" value="" style="line;strokeWidth=1;direction=south;html=1;points=[[1,0.5,0,0,0]];rotation=90;" parent="mE6gi2bYA7gFPaVlOnJq-5" vertex="1">
          <mxGeometry x="3.2432432432432434" y="22.999999999999986" width="5.405405405405405" height="4.9999999999999964" as="geometry" />
        </mxCell>
        <mxCell id="mE6gi2bYA7gFPaVlOnJq-11" value="" style="line;strokeWidth=1;direction=north;html=1;points=[[1,0.5,0,0,0]];rotation=90;" parent="mE6gi2bYA7gFPaVlOnJq-4" vertex="1">
          <mxGeometry x="28.10810810810811" y="13.999999999999991" width="5.405405405405405" height="4.9999999999999964" as="geometry" />
        </mxCell>
        <mxCell id="mE6gi2bYA7gFPaVlOnJq-10" value="" style="line;strokeWidth=1;direction=west;html=1;points=[[1,0.5,0,0,0]];rotation=-90;" parent="mE6gi2bYA7gFPaVlOnJq-13" vertex="1">
          <mxGeometry x="13.486216216216235" y="34.5" width="5.405405405405405" height="4.9999999999999964" as="geometry" />
        </mxCell>
        <mxCell id="mE6gi2bYA7gFPaVlOnJq-14" value="&lt;font style=&quot;font-size: 6px;&quot;&gt;1&lt;/font&gt;" style="text;html=1;strokeColor=none;fillColor=none;align=center;verticalAlign=middle;whiteSpace=wrap;rounded=0;rotation=90;" parent="mE6gi2bYA7gFPaVlOnJq-16" vertex="1">
          <mxGeometry x="6.979999999999563" y="23.47999999999996" width="10" height="10" as="geometry" />
        </mxCell>
        <mxCell id="mE6gi2bYA7gFPaVlOnJq-15" value="&lt;font style=&quot;font-size: 6px;&quot;&gt;0&lt;/font&gt;" style="text;html=1;strokeColor=none;fillColor=none;align=center;verticalAlign=middle;whiteSpace=wrap;rounded=0;direction=south;rotation=90;" parent="mE6gi2bYA7gFPaVlOnJq-16" vertex="1">
          <mxGeometry x="7.979999999999563" y="8.479999999999961" width="10" height="10" as="geometry" />
        </mxCell>
        <mxCell id="mE6gi2bYA7gFPaVlOnJq-20" style="edgeStyle=orthogonalEdgeStyle;rounded=0;orthogonalLoop=1;jettySize=auto;html=1;entryX=1;entryY=0.5;entryDx=0;entryDy=0;entryPerimeter=0;" parent="1" source="ZAlOu0CJ_7-fTKXVSEOV-58" target="mE6gi2bYA7gFPaVlOnJq-8" edge="1">
          <mxGeometry relative="1" as="geometry" />
        </mxCell>
        <mxCell id="mE6gi2bYA7gFPaVlOnJq-21" style="edgeStyle=orthogonalEdgeStyle;rounded=0;orthogonalLoop=1;jettySize=auto;html=1;exitX=1;exitY=0.5;exitDx=0;exitDy=0;exitPerimeter=0;" parent="1" source="mE6gi2bYA7gFPaVlOnJq-11" target="ZAlOu0CJ_7-fTKXVSEOV-62" edge="1">
          <mxGeometry relative="1" as="geometry" />
        </mxCell>
        <mxCell id="mE6gi2bYA7gFPaVlOnJq-22" value="&lt;font style=&quot;font-size: 9px;&quot;&gt;00&lt;/font&gt;" style="text;html=1;strokeColor=none;fillColor=none;align=center;verticalAlign=middle;whiteSpace=wrap;rounded=0;" parent="1" vertex="1">
          <mxGeometry x="2966" y="140" width="30" height="20" as="geometry" />
        </mxCell>
        <mxCell id="mE6gi2bYA7gFPaVlOnJq-23" value="" style="group;labelBackgroundColor=none;" parent="1" vertex="1" connectable="0">
          <mxGeometry x="3290.0049783549784" y="-235.49999999999977" width="29.995021645021637" height="40" as="geometry" />
        </mxCell>
        <mxCell id="mE6gi2bYA7gFPaVlOnJq-24" value="" style="rounded=0;whiteSpace=wrap;html=1;rotation=-90;labelBackgroundColor=none;" parent="mE6gi2bYA7gFPaVlOnJq-23" vertex="1">
          <mxGeometry x="-12.5" y="12.5" width="40" height="15" as="geometry" />
        </mxCell>
        <mxCell id="mE6gi2bYA7gFPaVlOnJq-25" value="" style="triangle;whiteSpace=wrap;html=1;rotation=-90;labelBackgroundColor=none;" parent="mE6gi2bYA7gFPaVlOnJq-23" vertex="1">
          <mxGeometry x="1.7857142857142776" y="29.94999999999999" width="11.428571428571429" height="7.5" as="geometry" />
        </mxCell>
        <mxCell id="xymUzGsUga3tY7WElRn4-1" value="" style="group" vertex="1" connectable="0" parent="1">
          <mxGeometry x="3226.0200000000004" y="600" width="32.97999999999956" height="40" as="geometry" />
        </mxCell>
        <mxCell id="xymUzGsUga3tY7WElRn4-2" value="" style="group" vertex="1" connectable="0" parent="xymUzGsUga3tY7WElRn4-1">
          <mxGeometry width="32.97999999999956" height="40" as="geometry" />
        </mxCell>
        <mxCell id="xymUzGsUga3tY7WElRn4-3" value="" style="group;direction=east;rotation=90;flipV=1;flipH=0;" vertex="1" connectable="0" parent="xymUzGsUga3tY7WElRn4-2">
          <mxGeometry x="-3.5100000000002183" y="3.509999999999991" width="40" height="32.98" as="geometry" />
        </mxCell>
        <mxCell id="xymUzGsUga3tY7WElRn4-4" value="" style="group;rotation=90;" vertex="1" connectable="0" parent="xymUzGsUga3tY7WElRn4-3">
          <mxGeometry x="1.0810810810810811" y="-0.9999999999999993" width="40" height="32.97999999999997" as="geometry" />
        </mxCell>
        <mxCell id="xymUzGsUga3tY7WElRn4-5" value="" style="group;rotation=90;" vertex="1" connectable="0" parent="xymUzGsUga3tY7WElRn4-4">
          <mxGeometry width="40" height="32.979999999999976" as="geometry" />
        </mxCell>
        <mxCell id="xymUzGsUga3tY7WElRn4-6" value="" style="verticalLabelPosition=bottom;verticalAlign=top;html=1;shape=mxgraph.basic.polygon;polyCoords=[[0.2,0.36],[0.8,0.36],[0.8,0.36],[1,1],[1,1],[0,1],[0,1],[0.2,0.36]];polyline=0;points=[];perimeter=rectanglePerimeter;recursiveResize=1;autosize=0;resizable=1;rotation=90;" vertex="1" parent="xymUzGsUga3tY7WElRn4-5">
          <mxGeometry x="4.324324324324325" y="3.9999999999999973" width="37.037037037037045" height="27.194035087719275" as="geometry" />
        </mxCell>
        <mxCell id="xymUzGsUga3tY7WElRn4-7" value="" style="line;strokeWidth=1;direction=south;html=1;points=[[1,0.5,0,0,0]];rotation=90;" vertex="1" parent="xymUzGsUga3tY7WElRn4-5">
          <mxGeometry x="3.2432432432432434" y="7.999999999999995" width="5.405405405405405" height="4.9999999999999964" as="geometry" />
        </mxCell>
        <mxCell id="xymUzGsUga3tY7WElRn4-8" value="" style="line;strokeWidth=1;direction=south;html=1;points=[[1,0.5,0,0,0]];rotation=90;" vertex="1" parent="xymUzGsUga3tY7WElRn4-4">
          <mxGeometry x="3.2432432432432434" y="22.999999999999986" width="5.405405405405405" height="4.9999999999999964" as="geometry" />
        </mxCell>
        <mxCell id="xymUzGsUga3tY7WElRn4-9" value="" style="line;strokeWidth=1;direction=north;html=1;points=[[1,0.5,0,0,0]];rotation=90;" vertex="1" parent="xymUzGsUga3tY7WElRn4-3">
          <mxGeometry x="28.10810810810811" y="13.999999999999991" width="5.405405405405405" height="4.9999999999999964" as="geometry" />
        </mxCell>
        <mxCell id="xymUzGsUga3tY7WElRn4-10" value="" style="line;strokeWidth=1;direction=west;html=1;points=[[1,0.5,0,0,0]];rotation=-90;" vertex="1" parent="xymUzGsUga3tY7WElRn4-2">
          <mxGeometry x="13.486216216216235" y="34.5" width="5.405405405405405" height="4.9999999999999964" as="geometry" />
        </mxCell>
        <mxCell id="xymUzGsUga3tY7WElRn4-11" value="&lt;font style=&quot;font-size: 6px;&quot;&gt;1&lt;/font&gt;" style="text;html=1;strokeColor=none;fillColor=none;align=center;verticalAlign=middle;whiteSpace=wrap;rounded=0;rotation=90;" vertex="1" parent="xymUzGsUga3tY7WElRn4-1">
          <mxGeometry x="6.979999999999563" y="23.47999999999996" width="10" height="10" as="geometry" />
        </mxCell>
        <mxCell id="xymUzGsUga3tY7WElRn4-12" value="&lt;font style=&quot;font-size: 6px;&quot;&gt;0&lt;/font&gt;" style="text;html=1;strokeColor=none;fillColor=none;align=center;verticalAlign=middle;whiteSpace=wrap;rounded=0;direction=south;rotation=90;" vertex="1" parent="xymUzGsUga3tY7WElRn4-1">
          <mxGeometry x="7.979999999999563" y="8.479999999999961" width="10" height="10" as="geometry" />
        </mxCell>
        <mxCell id="xymUzGsUga3tY7WElRn4-13" value="&lt;font style=&quot;font-size: 9px;&quot;&gt;1&lt;/font&gt;" style="text;html=1;strokeColor=none;fillColor=none;align=center;verticalAlign=middle;whiteSpace=wrap;rounded=0;" vertex="1" parent="1">
          <mxGeometry x="3216.02" y="621" width="10" height="10" as="geometry" />
        </mxCell>
        <mxCell id="xymUzGsUga3tY7WElRn4-14" style="edgeStyle=orthogonalEdgeStyle;rounded=0;orthogonalLoop=1;jettySize=auto;html=1;exitX=1;exitY=0.5;exitDx=0;exitDy=0;entryX=1;entryY=0.5;entryDx=0;entryDy=0;entryPerimeter=0;" edge="1" parent="1" source="Li7N5Yae0CZkDWWDmwoK-36" target="xymUzGsUga3tY7WElRn4-7">
          <mxGeometry relative="1" as="geometry" />
        </mxCell>
        <mxCell id="xymUzGsUga3tY7WElRn4-17" value="" style="edgeStyle=orthogonalEdgeStyle;rounded=0;orthogonalLoop=1;jettySize=auto;html=1;entryDx=0;entryDy=0;jumpStyle=arc;jumpSize=16;endArrow=none;endFill=0;" edge="1" parent="1" source="mE6gi2bYA7gFPaVlOnJq-1" target="xymUzGsUga3tY7WElRn4-16">
          <mxGeometry relative="1" as="geometry">
            <mxPoint x="2930" y="760" as="sourcePoint" />
            <mxPoint x="3270" y="803" as="targetPoint" />
          </mxGeometry>
        </mxCell>
        <mxCell id="xymUzGsUga3tY7WElRn4-18" style="edgeStyle=orthogonalEdgeStyle;rounded=0;orthogonalLoop=1;jettySize=auto;html=1;entryX=1;entryY=0.5;entryDx=0;entryDy=0;entryPerimeter=0;" edge="1" parent="1" source="xymUzGsUga3tY7WElRn4-16" target="xymUzGsUga3tY7WElRn4-10">
          <mxGeometry relative="1" as="geometry">
            <mxPoint x="3210" y="690" as="targetPoint" />
            <Array as="points">
              <mxPoint x="3185" y="700" />
              <mxPoint x="3242" y="700" />
            </Array>
          </mxGeometry>
        </mxCell>
        <mxCell id="xymUzGsUga3tY7WElRn4-16" value="" style="shape=waypoint;sketch=0;fillStyle=solid;size=6;pointerEvents=1;points=[];fillColor=none;resizable=0;rotatable=0;perimeter=centerPerimeter;snapToPoint=1;" vertex="1" parent="1">
          <mxGeometry x="3175" y="750" width="20" height="20" as="geometry" />
        </mxCell>
      </root>
    </mxGraphModel>
  </diagram>
</mxfile>
